<?xml version="1.0" encoding="utf-8"?>
<!-- Generator: Adobe Illustrator 17.0.0, SVG Export Plug-In . SVG Version: 6.00 Build 0)  -->
<!DOCTYPE svg PUBLIC "-//W3C//DTD SVG 1.1//EN" "http://www.w3.org/Graphics/SVG/1.1/DTD/svg11.dtd">
<svg version="1.1" id="Layer_1" xmlns="http://www.w3.org/2000/svg" xmlns:xlink="http://www.w3.org/1999/xlink" x="0px" y="0px"
	 width="512px" height="512px" viewBox="0 0 512 512" enable-background="new 0 0 512 512" xml:space="preserve">
<g>
    <path fill="#141414" d="M256.701,505.5c-56.246,0-110.675-17.834-153.263-50.217c-41.811-31.795-69.763-75.618-78.705-123.398
        l-1.612-8.613c-0.091-0.485-0.228-0.954-0.407-1.402c-4.64-24.447-14.624-84.483-14.201-146.332l0.017-2.906
        c0.333-57.461,3.464-100.983,9.305-129.358c5.312-25.808,11.242-30.74,12.377-31.466c2.356-1.51,7.251-3.308,17.193-3.308
        c32.943,0,85.476,19.884,103.232,30.1c43.609,25.091,65.124,45.159,68.772,48.7c1.809,2.227,4.393,3.735,7.367,4.28
        c1.045,0.19,2.165,0.278,3.531,0.278c2.789,0,6.901-0.379,11.663-0.818c5.212-0.48,11.017-1.015,14.73-1.015
        c3.788,0,9.696,0.565,14.908,1.064c4.938,0.471,9.153,0.873,12.038,0.873c6.554,0,9.915-2.869,11.582-5.279
        C300.465,81.7,321.821,62.5,363.361,38.6C381.12,28.383,433.654,8.5,466.595,8.5c9.941,0,14.836,1.798,17.19,3.306
        c1.136,0.727,7.066,5.659,12.379,31.465c5.841,28.375,8.972,71.895,9.305,129.352l0.019,2.909
        c0.411,60.116-8.998,118.473-13.808,144.247c-0.672,0.903-1.144,1.964-1.355,3.114l-1.554,8.444
        c-8.817,47.904-36.723,91.859-78.577,123.768C367.569,487.604,313.059,505.5,256.701,505.5z"/>
    <path fill="#FFFFFF" d="M466.595,16c8.473,0,11.926,1.449,12.915,1.987c0.835,0.897,5.672,6.972,10.162,31.169
        c5.192,27.979,7.984,69.535,8.297,123.519l0.018,2.913c0.4,58.429-8.586,115.226-13.421,141.417
        c-0.768,1.392-1.321,2.918-1.619,4.533l-1.553,8.443c-8.48,46.067-35.381,88.386-75.749,119.162
        C364.321,480.649,311.425,498,256.701,498c-54.615,0-107.433-17.291-148.724-48.688c-40.328-30.666-67.273-72.859-75.872-118.807
        l-1.612-8.614c-0.129-0.688-0.304-1.359-0.522-2.01c-4.643-24.583-14.373-83.592-13.958-144.306l0.017-2.902
        c0.313-53.979,3.104-95.536,8.296-123.517c4.49-24.196,9.327-30.273,10.162-31.171C35.477,17.449,38.932,16,47.405,16
        c31.647,0,82.325,19.224,99.492,29.1c41.937,24.128,62.839,43.302,67.009,47.31c2.914,3.408,6.941,5.708,11.532,6.548
        c1.492,0.272,3.039,0.399,4.87,0.399c3.131,0,7.192-0.374,12.334-0.848l0.098-0.009c4.719-0.435,10.591-0.976,13.962-0.976
        c3.428,0,9.398,0.571,14.231,1.034c5.29,0.505,9.469,0.904,12.715,0.904c9.284,0,14.478-4.243,17.187-7.757
        c5.706-5.368,26.457-23.699,66.268-46.604C384.271,35.223,434.95,16,466.595,16 M466.595,1
        c-34.746,0-88.109,20.246-106.973,31.098c-44.175,25.416-66.026,45.703-70.279,49.84c-0.645,1.308-2.19,2.523-5.696,2.523
        c-2.538,0-6.608-0.389-11.323-0.839c-5.384-0.515-11.487-1.098-15.623-1.098c-4.071,0-10.077,0.555-15.377,1.043
        c-4.596,0.424-8.565,0.79-11.016,0.79c-0.908,0-1.6-0.05-2.179-0.155c-1.455-0.266-2.47-0.993-3.09-1.888
        c-3.138-3.103-24.945-23.913-70.661-50.216C135.514,21.246,82.15,1,47.405,1c-9.437,0-16.583,1.51-21.237,4.49
        C17.109,11.291,1.795,40.712,1.03,172.587l-0.017,2.899c-0.44,64.392,10.368,127.164,14.623,149.303l0.113-0.138l1.612,8.614
        c9.285,49.613,38.243,95.066,81.537,127.988C142.783,494.622,198.825,513,256.701,513c57.988,0,114.115-18.441,158.038-51.929
        c43.34-33.041,72.251-78.633,81.407-128.375l1.553-8.445l0.625,0.739c4.228-21.954,15.104-84.914,14.662-149.505l-0.018-2.904
        C512.203,40.711,496.889,11.291,487.83,5.49C483.177,2.51,476.033,1,466.595,1L466.595,1z"/>
</g>
<ellipse fill="#FFFFFF" cx="141.159" cy="285" rx="105.827" ry="147.178"/>
<ellipse cx="141.166" cy="284.587" rx="60.25" ry="91.361"/>
<ellipse fill="#FFFFFF" cx="372.841" cy="285" rx="105.827" ry="147.178"/>
<ellipse cx="372.834" cy="284.587" rx="60.25" ry="91.361"/>
</svg>
