/* XPM */
static char *baka_mplayer[] = {
/* columns rows colors chars-per-pixel */
"32 32 64 1 ",
"  c #000700070007",
". c #061206120612",
"X c #08A108A108A1",
"o c #0E470E470E47",
"O c #0FF90FF90FF9",
"+ c #172317231723",
"@ c #1B751B751B75",
"# c #1F111F111F11",
"$ c #230923092309",
"% c #263A263A263A",
"& c #2B332B332B33",
"* c #2D242D242D24",
"= c #324532453245",
"- c #35CF35CF35CF",
"; c #389B389B389B",
": c #3D3A3D3A3D3A",
"> c #42F342F342F3",
", c #451A451A451A",
"< c #4B174B174B17",
"1 c #4E684E684E68",
"2 c #52A352A352A3",
"3 c #56E656E656E6",
"4 c #591159115911",
"5 c #5E565E565E56",
"6 c #62C562C562C5",
"7 c #649264926492",
"8 c #695D695D695D",
"9 c #6C1B6C1B6C1B",
"0 c #737E737E737E",
"q c #74A874A874A8",
"w c #7B287B287B28",
"e c #7F727F727F72",
"r c #845284528452",
"t c #858385838583",
"y c #8AE28AE28AE2",
"u c #8D978D978D97",
"i c #907490749074",
"p c #976E976E976E",
"a c #98D898D898D8",
"s c #9F8D9F8D9F8D",
"d c #A0FDA0FDA0FD",
"f c #A5A7A5A7A5A7",
"g c #AC84AC84AC84",
"h c #AD5AAD5AAD5A",
"j c #B29BB29BB29B",
"k c #B6A5B6A5B6A5",
"l c #B8C7B8C7B8C7",
"z c #BD1CBD1CBD1C",
"x c #C3BBC3BBC3BB",
"c c #C5E7C5E7C5E7",
"v c #C9DBC9DBC9DB",
"b c #CC94CC94CC94",
"n c #D299D299D299",
"m c #D83ED83ED83E",
"M c #D8BDD8BDD8BD",
"N c #DFE4DFE4DFE4",
"B c #E0BDE0BDE0BD",
"V c #E5E4E5E4E5E4",
"C c #EA1EEA1EEA1E",
"Z c #EE14EE14EE14",
"A c #F1FAF1FAF1FA",
"S c #F819F819F819",
"D c #FBECFBECFBEC",
"F c #FFFDFFFDFFFD",
/* pixels */
"FFVBAFFFFFFFFFFFFFFFFFFFFFFABBFF",
"FM;%:9gVFFFFFFFFFFFFFFFFCj0>&*cF",
"Fs    .&wMFFFFFFFFFFFFBy=X    rF",
"Fq       %pAFFFFFFFFDf=    .  4F",
"F3 ...    X4mFFFFFFB8X        >A",
"A>    .  .  =zSAZSb>  . . ..  *C",
"Z-         . +:==:# . .       $N",
"V*  ..                     .  @n",
"B%    O:53&.         %26,+    @b",
"N%   :lSFFVu@  ... OeNDFSx<.  +v",
"N$  ,BFFFFFFj@    osFFFFFFC4  Ov",
"M$ %nFFFZAFFFpX . eDFFSZDFFB- +c",
"N% yFFCq=:fDFA,  =BFFj,*8NFFf.+c",
"B&#NFS6   ofFFs  rFFl@   <ZFZ-+n",
"Z=4FFjX    =VFM#ovFA<     pFFq$N",
"S,yFF6     .jFS>&CFvO     <DFf=V",
"F5gFA-      rFF5>SFs      $NFc1S",
"FekFV&      8FF81DFr      @mFv9D",
"FskFC*      0FF7<DFu      #mFvuF",
"FlgFD,      iFF2;SFg.     *ZFzgF",
"FMaFFr     OcFZ-#NFM$     7FFgbF",
"FArAFn$    5DFvOXjFFq    +xFDuCF",
"FFpcFFf+  :MFFe  7FFV1. OiDFmuFF",
"FFveSFFvyaVFFM%  +cFFCdrzDFFuxFF",
"FFFydFFFFFFFA6 .. <ZFFFFFFFkrDFF",
"FFFV5fDFFFFC0.     5VFFFFFk5MFFF",
"FFFFb>7xNmf,        -snNcq:xFFFF",
"FFFFFb;X#@.  . . ..   ##X=xFFFFF",
"FFFFFFB8o  .  .  .     X5MFFFFFF",
"FFFFFFFDk2O          o1gSFFFFFFF",
"FFFFFFFFFSvy2*#OO@*1rxSFFFFFFFFF",
"FFFFFFFFFFFFDVnvvnVSFFFFFFFFFFFF"
};
