<?xml version="1.0" encoding="utf-8"?>
<!-- Generator: Adobe Illustrator 17.0.0, SVG Export Plug-In . SVG Version: 6.00 Build 0)  -->
<!DOCTYPE svg PUBLIC "-//W3C//DTD SVG 1.1//EN" "http://www.w3.org/Graphics/SVG/1.1/DTD/svg11.dtd">
<svg version="1.1"
	 id="Layer_1" xmlns:dc="http://purl.org/dc/elements/1.1/" xmlns:cc="http://creativecommons.org/ns#" xmlns:rdf="http://www.w3.org/1999/02/22-rdf-syntax-ns#" xmlns:svg="http://www.w3.org/2000/svg" xmlns:sodipodi="http://sodipodi.sourceforge.net/DTD/sodipodi-0.dtd" xmlns:inkscape="http://www.inkscape.org/namespaces/inkscape" inkscape:version="0.48.4 r9939" sodipodi:docname="disabled_previous.svg" inkscape:export-xdpi="36.571243" inkscape:export-filename="D:\Files\Programming\Baka MPlayer (Git)\Baka MPlayer\Resources\MainForm\previousButton\disabled_previous.png" inkscape:export-ydpi="36.571243"
	 xmlns="http://www.w3.org/2000/svg" xmlns:xlink="http://www.w3.org/1999/xlink" x="0px" y="0px" width="28.889px" height="20px"
	 viewBox="21.103 14.61 28.889 20" enable-background="new 21.103 14.61 28.889 20" xml:space="preserve">
<sodipodi:namedview  id="namedview3009" bordercolor="#666666" pagecolor="#ffffff" borderopacity="1" objecttolerance="10" gridtolerance="10" guidetolerance="10" showgrid="false" showguides="true" inkscape:zoom="4.2992092" inkscape:cx="42.498614" inkscape:cy="26.023416" inkscape:pageopacity="0" inkscape:pageshadow="2" inkscape:window-width="1920" inkscape:window-height="1017" inkscape:guide-bbox="true" inkscape:snap-global="true" inkscape:snap-page="true" inkscape:snap-bbox="true" inkscape:snap-center="true" inkscape:window-x="-8" inkscape:window-y="-8" inkscape:window-maximized="1" inkscape:current-layer="Layer_1" inkscape:snap-bbox-edge-midpoints="true" fit-margin-right="0" inkscape:snap-object-midpoints="false" inkscape:bbox-nodes="true" inkscape:snap-bbox-midpoints="true" inkscape:bbox-paths="true" fit-margin-bottom="0" fit-margin-top="0" fit-margin-left="0">
	</sodipodi:namedview>
<g id="path2983" transform="matrix(-1,0,0,-1,84.439,72.75)">
	<path id="path5" inkscape:connector-curvature="0" fill="#808080" d="M61.304,40.172v15.937h-1.765V49.81v-3.522v-6.116H61.304
		 M45.126,41.656l5.611,3.233l5.61,3.244l-5.609,3.244l-5.612,3.242v-1.483v-3.523l-3.049,1.764l-5.598,3.239v-6.483v-6.475
		l5.6,3.232l3.047,1.759v-3.518V41.656 M62.091,38.14h-3.34c-0.689,0-1.245,0.555-1.245,1.245v7.073l-5.752-3.327l-8.66-4.99v4.99
		l-8.647-4.99v9.994V58.14l8.647-5.003v5.003l8.66-5.003l5.752-3.327v7.086c0,0.689,0.555,1.245,1.245,1.245h3.34
		c0.689,0,1.245-0.555,1.245-1.245V39.385C63.336,38.696,62.78,38.14,62.091,38.14C62.091,38.14,62.091,38.14,62.091,38.14z"/>
</g>
</svg>
