<?xml version="1.0" encoding="utf-8"?>
<!-- Generator: Adobe Illustrator 17.0.0, SVG Export Plug-In . SVG Version: 6.00 Build 0)  -->
<!DOCTYPE svg PUBLIC "-//W3C//DTD SVG 1.1//EN" "http://www.w3.org/Graphics/SVG/1.1/DTD/svg11.dtd">
<svg version="1.1" id="Layer_1" xmlns="http://www.w3.org/2000/svg" xmlns:xlink="http://www.w3.org/1999/xlink" x="0px" y="0px"
	 width="128px" height="128px" viewBox="0 0 128 128" enable-background="new 0 0 128 128" xml:space="preserve">
<path fill="#607D8B" d="M18.281,84.957c-4.996-18.969-6.031-38.558,5.39-55.75c8.196-12.336,23.563-18.352,38.95-18.352
	c16.547,0,29.493,5.499,38.232,17.26c12.537,16.872,11.059,37.886,6.025,56.842c-1.34,5.04,6.998,7.181,8.342,2.144
	c5.678-21.388,6.522-45.203-6.896-64.331C98.386,8.612,81.278,0.417,63.291,0.014C45.117-0.395,28.364,8.251,17.766,21.707
	C3.088,40.338,4.327,65.797,9.942,87.101C11.269,92.143,19.612,90.004,18.281,84.957L18.281,84.957z"/>
<polygon fill="#607D8B" points="92.336,118.981 100.361,120.433 106.788,89.65 98.76,88.196 "/>
<path fill="#607D8B" d="M75.865,121.104c-0.613,2.937,2.35,5.938,6.612,6.715l0,0c4.263,0.771,8.218-0.983,8.832-3.92l8.781-42.092
	c0.618-2.938-2.347-5.946-6.607-6.72l0,0c-4.263-0.771-8.22,0.985-8.827,3.922L75.865,121.104z"/>
<path fill="#607D8B" d="M103.651,114.67c-0.24,1.151,0.388,2.226,1.401,2.408l1.891,0.345c1.011,0.185,2.028-0.596,2.267-1.741
	l5.636-26.994c0.239-1.148-0.389-2.221-1.402-2.408l-1.889-0.346c-1.015-0.184-2.033,0.603-2.272,1.744L103.651,114.67z"/>
<polygon fill="#607D8B" points="32.88,118.979 24.855,120.433 18.429,89.65 26.457,88.196 "/>
<path fill="#607D8B" d="M49.347,121.101c0.614,2.94-2.346,5.938-6.607,6.717l0,0c-4.263,0.771-8.222-0.983-8.833-3.92l-8.785-42.092
	c-0.612-2.938,2.346-5.946,6.609-6.72l0,0c4.265-0.771,8.22,0.985,8.833,3.922L49.347,121.101z"/>
<path fill="#607D8B" d="M21.565,114.67c0.236,1.148-0.391,2.226-1.403,2.405l-1.889,0.346c-1.013,0.185-2.03-0.596-2.269-1.738
	l-5.636-26.999c-0.24-1.144,0.391-2.219,1.405-2.407l1.887-0.344c1.017-0.186,2.032,0.596,2.269,1.742L21.565,114.67z"/>
</svg>
