<?xml version="1.0" encoding="utf-8"?>
<!-- Generator: Adobe Illustrator 17.0.0, SVG Export Plug-In . SVG Version: 6.00 Build 0)  -->
<!DOCTYPE svg PUBLIC "-//W3C//DTD SVG 1.1//EN" "http://www.w3.org/Graphics/SVG/1.1/DTD/svg11.dtd">
<svg version="1.1" id="Layer_1" xmlns="http://www.w3.org/2000/svg" xmlns:xlink="http://www.w3.org/1999/xlink" x="0px" y="0px"
	 width="16px" height="16px" viewBox="0 0 16 16" enable-background="new 0 0 16 16" xml:space="preserve">
<path fill="#F5F5F5" d="M12,8c0-1.573-0.907-2.924-2.222-3.582v1.964l2.178,2.178C11.982,8.382,12,8.196,12,8z M14.222,8
	c0,0.836-0.178,1.618-0.48,2.347l1.342,1.342C15.671,10.587,16,9.333,16,8c0-3.804-2.658-6.987-6.222-7.796v1.831
	C12.347,2.8,14.222,5.182,14.222,8z M1.129,0L0,1.129l4.204,4.204H0v5.333h3.556L8,15.111V9.129l3.778,3.778
	c-0.596,0.462-1.262,0.827-2,1.049v1.831c1.227-0.276,2.338-0.844,3.28-1.609L14.871,16L16,14.871l-8-8L1.129,0z M8,0.889
	L6.142,2.747L8,4.604V0.889z"/>
</svg>
