<?xml version="1.0" encoding="utf-8"?>
<!-- Generator: Adobe Illustrator 17.0.0, SVG Export Plug-In . SVG Version: 6.00 Build 0)  -->
<!DOCTYPE svg PUBLIC "-//W3C//DTD SVG 1.1//EN" "http://www.w3.org/Graphics/SVG/1.1/DTD/svg11.dtd">
<svg version="1.1"
	 id="Layer_1" xmlns:dc="http://purl.org/dc/elements/1.1/" xmlns:cc="http://creativecommons.org/ns#" xmlns:rdf="http://www.w3.org/1999/02/22-rdf-syntax-ns#" xmlns:svg="http://www.w3.org/2000/svg"
	 xmlns="http://www.w3.org/2000/svg" xmlns:xlink="http://www.w3.org/1999/xlink" x="0px" y="0px" width="25.127px" height="20px"
	 viewBox="0 0 25.127 20" enable-background="new 0 0 25.127 20" xml:space="preserve">
<path fill="#353535" d="M23.501,1.626v16.749h-1.267V1.626H23.501 M24.336,0h-2.937c-0.436,0-0.79,0.474-0.79,1.059v17.883
	c0,0.585,0.354,1.059,0.79,1.059h2.937c0.436,0,0.79-0.474,0.79-1.059V1.059C25.126,0.474,24.772,0,24.336,0L24.336,0z"/>
<path fill="#353535" d="M14.882,4.224V10v5.776l-5.003-2.888L4.877,10L9.88,7.112L14.882,4.224 M17.32,0L8.66,5L0,10l8.66,5l8.66,5
	V10V0L17.32,0z"/>
</svg>
