<?xml version="1.0" encoding="utf-8"?>
<!-- Generator: Adobe Illustrator 17.0.0, SVG Export Plug-In . SVG Version: 6.00 Build 0)  -->
<!DOCTYPE svg PUBLIC "-//W3C//DTD SVG 1.1//EN" "http://www.w3.org/Graphics/SVG/1.1/DTD/svg11.dtd">
<svg version="1.1" id="Layer_1" xmlns="http://www.w3.org/2000/svg" xmlns:xlink="http://www.w3.org/1999/xlink" x="0px" y="0px"
	 width="16px" height="16px" viewBox="0 0 16 16" enable-background="new 0 0 16 16" xml:space="preserve">
<path fill="#5A5A5A" d="M8.003,4.498c1.757,0,3.183,1.426,3.183,3.183c0,0.414-0.083,0.802-0.229,1.165l1.859,1.859
	c0.961-0.802,1.719-1.84,2.184-3.024c-1.101-2.795-3.82-4.775-7.003-4.775c-0.891,0-1.744,0.159-2.534,0.446l1.375,1.375
	C7.201,4.581,7.589,4.498,8.003,4.498z M1.637,2.76l1.452,1.452l0.293,0.293C2.324,5.326,1.497,6.421,1,7.682
	c1.101,2.795,3.82,4.775,7.003,4.775c0.987,0,1.929-0.191,2.789-0.535l0.267,0.267l1.865,1.859l0.809-0.809L2.445,1.952L1.637,2.76z
	 M5.157,6.281l0.987,0.987C6.112,7.402,6.093,7.542,6.093,7.682c0,1.057,0.853,1.91,1.91,1.91c0.14,0,0.28-0.019,0.414-0.051
	l0.987,0.987c-0.427,0.21-0.898,0.337-1.401,0.337c-1.757,0-3.183-1.426-3.183-3.183C4.82,7.179,4.947,6.708,5.157,6.281z
	 M7.901,5.784L9.907,7.79L9.92,7.688c0-1.057-0.853-1.91-1.91-1.91L7.901,5.784z"/>
</svg>
