<?xml version="1.0" encoding="utf-8"?>
<!-- Generator: Adobe Illustrator 17.0.0, SVG Export Plug-In . SVG Version: 6.00 Build 0)  -->
<!DOCTYPE svg PUBLIC "-//W3C//DTD SVG 1.1//EN" "http://www.w3.org/Graphics/SVG/1.1/DTD/svg11.dtd">
<svg version="1.1"
	 id="Layer_1" xmlns:dc="http://purl.org/dc/elements/1.1/" xmlns:cc="http://creativecommons.org/ns#" xmlns:rdf="http://www.w3.org/1999/02/22-rdf-syntax-ns#" xmlns:svg="http://www.w3.org/2000/svg"
	 xmlns="http://www.w3.org/2000/svg" xmlns:xlink="http://www.w3.org/1999/xlink" x="0px" y="0px" width="26.945px" height="39px"
	 viewBox="0 0 26.945 39" enable-background="new 0 0 26.945 39" xml:space="preserve">
<path fill="#353535" d="M5.443,2.378c1.786,0,3.237,1.274,3.237,2.84v28.566c0,1.565-1.452,2.84-3.237,2.84s-3.237-1.274-3.237-2.84
	V5.217C2.204,3.652,3.657,2.378,5.443,2.378 M5.443,0C2.437,0,0,2.336,0,5.217v28.566C0,36.665,2.438,39,5.443,39
	s5.443-2.336,5.443-5.217V5.217C10.885,2.337,8.448,0,5.443,0L5.443,0z"/>
<path fill="#353535" d="M21.502,2.378c1.786,0,3.237,1.274,3.237,2.84v28.566c0,1.565-1.452,2.84-3.237,2.84
	c-1.786,0-3.237-1.274-3.237-2.84V5.217c0-0.705,0.303-1.384,0.853-1.911C19.743,2.708,20.589,2.378,21.502,2.378 M21.502,0
	c-3.006,0-5.444,2.336-5.443,5.217v28.566c0,2.882,2.438,5.217,5.443,5.217s5.443-2.336,5.443-5.217V5.217
	C26.946,2.337,24.508,0,21.502,0L21.502,0z"/>
</svg>
