<?xml version="1.0" encoding="utf-8"?>
<!-- Generator: Adobe Illustrator 17.0.0, SVG Export Plug-In . SVG Version: 6.00 Build 0)  -->
<!DOCTYPE svg PUBLIC "-//W3C//DTD SVG 1.1//EN" "http://www.w3.org/Graphics/SVG/1.1/DTD/svg11.dtd">
<svg version="1.1"
	 id="Layer_1" xmlns:dc="http://purl.org/dc/elements/1.1/" xmlns:cc="http://creativecommons.org/ns#" xmlns:rdf="http://www.w3.org/1999/02/22-rdf-syntax-ns#" xmlns:svg="http://www.w3.org/2000/svg" xmlns:sodipodi="http://sodipodi.sourceforge.net/DTD/sodipodi-0.dtd" xmlns:inkscape="http://www.inkscape.org/namespaces/inkscape" inkscape:version="0.48.4 r9939" sodipodi:docname="default_playlist.svg" inkscape:export-xdpi="11.487798" inkscape:export-filename="D:\Files\Programming\Baka MPlayer (Git)\Baka MPlayer\Resources\MainForm\playlistButton\_default_playlist.png" inkscape:export-ydpi="11.487798"
	 xmlns="http://www.w3.org/2000/svg" xmlns:xlink="http://www.w3.org/1999/xlink" x="0px" y="0px" width="20px" height="20px"
	 viewBox="40 40 20 20" enable-background="new 40 40 20 20" xml:space="preserve">
<sodipodi:namedview  id="namedview3009" bordercolor="#666666" pagecolor="#ffffff" borderopacity="1" objecttolerance="10" gridtolerance="10" guidetolerance="10" showgrid="false" showguides="true" inkscape:zoom="4.2992092" inkscape:cx="15.195835" inkscape:cy="51.549409" inkscape:pageopacity="0" inkscape:pageshadow="2" inkscape:window-width="1920" inkscape:window-height="1017" inkscape:guide-bbox="true" inkscape:snap-global="true" inkscape:snap-page="true" inkscape:snap-bbox="true" inkscape:snap-center="true" inkscape:window-x="-8" inkscape:window-y="-8" inkscape:window-maximized="1" inkscape:current-layer="Layer_1">
	</sodipodi:namedview>
<path id="path3015" fill="#F5F5F5" d="M50,40c-5.523,0-10,4.477-10,10s4.477,10,10,10s10-4.477,10-10S55.523,40,50,40z"/>
<g id="g3796" transform="translate(0,0.9868423)">
	<polygon id="polygon3003" points="54.357,46.559 55.817,46.559 55.817,44.951 44.183,44.951 44.183,45.986 44.183,46.559 	"/>
	<polygon id="polygon3005" points="44.183,48.098 44.183,49.244 44.183,49.818 53.571,49.818 53.571,49.244 53.571,48.098 	"/>
	<polygon id="polygon3007" points="54.357,53.076 55.817,53.076 55.817,51.356 54.357,51.356 44.183,51.356 44.183,53.076 	"/>
</g>
</svg>
