<?xml version="1.0" encoding="utf-8"?>
<!-- Generator: Adobe Illustrator 17.0.0, SVG Export Plug-In . SVG Version: 6.00 Build 0)  -->
<!DOCTYPE svg PUBLIC "-//W3C//DTD SVG 1.1//EN" "http://www.w3.org/Graphics/SVG/1.1/DTD/svg11.dtd">
<svg version="1.1" id="Layer_1" xmlns="http://www.w3.org/2000/svg" xmlns:xlink="http://www.w3.org/1999/xlink" x="0px" y="0px"
	 width="60px" height="60px" viewBox="20 20 60 60" enable-background="new 20 20 60 60" xml:space="preserve">
<g>
	<polygon fill="#F5F5F5" points="39.944,51.321 50.108,61.485 60.272,51.321 58.858,49.907 51.108,57.657 51.108,26 49.108,26 
		49.108,57.657 41.358,49.907 	"/>
	<path fill="#F5F5F5" d="M55,34.655v2.066c7.498,2.174,13,9.09,13,17.279c0,9.925-8.075,18-18,18s-18-8.075-18-18
		c0-8.189,5.502-15.105,13-17.279v-2.066C36.379,36.879,30,44.684,30,54c0,11.046,8.954,20,20,20s20-8.954,20-20
		C70,44.684,63.621,36.879,55,34.655z"/>
</g>
</svg>
