<?xml version="1.0" encoding="utf-8"?>
<!-- Generator: Adobe Illustrator 17.0.0, SVG Export Plug-In . SVG Version: 6.00 Build 0)  -->
<!DOCTYPE svg PUBLIC "-//W3C//DTD SVG 1.1//EN" "http://www.w3.org/Graphics/SVG/1.1/DTD/svg11.dtd">
<svg version="1.1"
	 id="Layer_1" xmlns:dc="http://purl.org/dc/elements/1.1/" xmlns:cc="http://creativecommons.org/ns#" xmlns:rdf="http://www.w3.org/1999/02/22-rdf-syntax-ns#" xmlns:svg="http://www.w3.org/2000/svg" xmlns:sodipodi="http://sodipodi.sourceforge.net/DTD/sodipodi-0.dtd" xmlns:inkscape="http://www.inkscape.org/namespaces/inkscape" inkscape:version="0.48.4 r9939" sodipodi:docname="down_pause.svg" inkscape:export-xdpi="71.801628" inkscape:export-filename="D:\Files\Programming\Baka MPlayer (Git)\Baka MPlayer\Resources\MainForm\pauseButton\down_pause.png" inkscape:export-ydpi="71.801628"
	 xmlns="http://www.w3.org/2000/svg" xmlns:xlink="http://www.w3.org/1999/xlink" x="0px" y="0px" width="27.74px" height="39px"
	 viewBox="3.63 5.105 27.74 39" enable-background="new 3.63 5.105 27.74 39" xml:space="preserve">
<sodipodi:namedview  id="namedview3009" bordercolor="#666666" pagecolor="#ffffff" borderopacity="1" objecttolerance="10" gridtolerance="10" guidetolerance="10" showgrid="false" showguides="true" inkscape:zoom="4.2992092" inkscape:cx="12.980213" inkscape:cy="22.183031" inkscape:pageopacity="0" inkscape:pageshadow="2" inkscape:window-width="1920" inkscape:window-height="1017" inkscape:guide-bbox="true" inkscape:snap-global="true" inkscape:snap-page="true" inkscape:snap-bbox="true" inkscape:snap-center="true" inkscape:window-x="-8" inkscape:window-y="-8" inkscape:window-maximized="1" inkscape:current-layer="Layer_1" inkscape:snap-bbox-edge-midpoints="true" fit-margin-right="0" inkscape:snap-object-midpoints="false" inkscape:bbox-nodes="true" inkscape:snap-bbox-midpoints="true" inkscape:bbox-paths="true" fit-margin-bottom="0" fit-margin-top="0" fit-margin-left="0">
	</sodipodi:namedview>
<path id="path4" inkscape:connector-curvature="0" fill="#F5F5F5" d="M14.571,38.888c0,2.882-2.449,5.217-5.471,5.217l0,0
	c-3.02,0-5.471-2.336-5.471-5.217V10.322c0-2.882,2.449-5.217,5.471-5.217l0,0c3.02,0,5.471,2.336,5.471,5.217V38.888z"/>
<path id="path6" inkscape:connector-curvature="0" fill="#F5F5F5" d="M31.369,38.888c0,2.882-2.449,5.217-5.471,5.217l0,0
	c-3.02,0-5.471-2.336-5.471-5.217V10.322c-0.001-2.882,2.449-5.217,5.471-5.217l0,0c3.02,0,5.471,2.336,5.471,5.217V38.888z"/>
</svg>
