<?xml version="1.0" encoding="utf-8"?>
<!-- Generator: Adobe Illustrator 17.0.0, SVG Export Plug-In . SVG Version: 6.00 Build 0)  -->
<!DOCTYPE svg PUBLIC "-//W3C//DTD SVG 1.1//EN" "http://www.w3.org/Graphics/SVG/1.1/DTD/svg11.dtd">
<svg version="1.1" id="Layer_1" xmlns="http://www.w3.org/2000/svg" xmlns:xlink="http://www.w3.org/1999/xlink" x="0px" y="0px"
	 width="60px" height="60px" viewBox="0 0 60 60" enable-background="new 0 0 60 60" xml:space="preserve">
<polygon fill="#F5F5F5" points="19.944,31.321 30.108,41.485 40.272,31.321 38.858,29.907 31.108,37.657 31.108,6 29.108,6 
	29.108,37.657 21.358,29.907 "/>
<path fill="#F5F5F5" d="M35,14.655v2.066c7.498,2.174,13,9.09,13,17.279c0,9.925-8.075,18-18,18s-18-8.075-18-18
	c0-8.189,5.502-15.105,13-17.279v-2.066C16.379,16.879,10,24.684,10,34c0,11.046,8.954,20,20,20s20-8.954,20-20
	C50,24.684,43.621,16.879,35,14.655z"/>
</svg>
