<?xml version="1.0" encoding="utf-8"?>
<!-- Generator: Adobe Illustrator 17.0.0, SVG Export Plug-In . SVG Version: 6.00 Build 0)  -->
<!DOCTYPE svg PUBLIC "-//W3C//DTD SVG 1.1//EN" "http://www.w3.org/Graphics/SVG/1.1/DTD/svg11.dtd">
<svg version="1.1"
	 id="Layer_1" xmlns:dc="http://purl.org/dc/elements/1.1/" xmlns:cc="http://creativecommons.org/ns#" xmlns:rdf="http://www.w3.org/1999/02/22-rdf-syntax-ns#" xmlns:svg="http://www.w3.org/2000/svg"
	 xmlns="http://www.w3.org/2000/svg" xmlns:xlink="http://www.w3.org/1999/xlink" x="0px" y="0px" width="27.74px" height="39px"
	 viewBox="0 0 27.74 39" enable-background="new 0 0 27.74 39" xml:space="preserve">
<path fill="#F5F5F5" d="M10.942,33.783c0,2.882-2.449,5.217-5.471,5.217l0,0C2.451,39,0,36.664,0,33.783V5.217
	C0,2.335,2.449,0,5.471,0l0,0c3.02,0,5.471,2.336,5.471,5.217C10.942,5.217,10.942,33.783,10.942,33.783z"/>
<path fill="#F5F5F5" d="M27.74,33.783c0,2.882-2.449,5.217-5.471,5.217l0,0c-3.02,0-5.471-2.336-5.471-5.217V5.217
	C16.797,2.335,19.247,0,22.269,0l0,0c3.02,0,5.471,2.336,5.471,5.217V33.783z"/>
</svg>
