<?xml version="1.0" encoding="utf-8"?>
<!-- Generator: Adobe Illustrator 17.0.0, SVG Export Plug-In . SVG Version: 6.00 Build 0)  -->
<!DOCTYPE svg PUBLIC "-//W3C//DTD SVG 1.1//EN" "http://www.w3.org/Graphics/SVG/1.1/DTD/svg11.dtd">
<svg version="1.1" id="Layer_1" xmlns="http://www.w3.org/2000/svg" xmlns:xlink="http://www.w3.org/1999/xlink" x="0px" y="0px"
	 width="16px" height="16px" viewBox="0 0 16 16" enable-background="new 0 0 16 16" xml:space="preserve">
<path fill="#008098" d="M4.82,7.68c0-0.5,0.13-0.97,0.34-1.4l0.98,0.99C6.11,7.4,6.09,7.54,6.09,7.68c0,1.06,0.86,1.91,1.91,1.91
	c0.14,0,0.28-0.02,0.42-0.05l0.98,0.99c-0.42,0.21-0.89,0.33-1.4,0.33C6.25,10.86,4.82,9.44,4.82,7.68z"/>
<path fill="#008098" d="M13.52,0.5H2.48C1.39,0.5,0.5,1.39,0.5,2.48v11.04c0,1.09,0.89,1.98,1.98,1.98h11.04
	c1.09,0,1.98-0.89,1.98-1.98V2.48C15.5,1.39,14.61,0.5,13.52,0.5z M12.92,14.05l-2.13-2.13c-0.86,0.35-1.8,0.54-2.79,0.54
	c-3.18,0-5.9-1.98-7-4.78c0.5-1.26,1.32-2.35,2.38-3.17l-0.29-0.3L1.64,2.76l0.8-0.81l11.29,11.29L12.92,14.05z M7.9,5.78h0.11
	c1.06,0,1.91,0.85,1.91,1.91l-0.01,0.1L7.9,5.78z M12.82,10.71l-1.86-1.86c0.14-0.37,0.23-0.75,0.23-1.17C11.19,5.92,9.76,4.5,8,4.5
	c-0.41,0-0.8,0.08-1.16,0.23L5.46,3.35C6.25,3.07,7.11,2.91,8,2.91c3.18,0,5.9,1.98,7,4.77C14.54,8.87,13.78,9.9,12.82,10.71z"/>
</svg>
