<?xml version="1.0" encoding="utf-8"?>
<!-- Generator: Adobe Illustrator 17.1.0, SVG Export Plug-In . SVG Version: 6.00 Build 0)  -->
<!DOCTYPE svg PUBLIC "-//W3C//DTD SVG 1.1//EN" "http://www.w3.org/Graphics/SVG/1.1/DTD/svg11.dtd">
<svg version="1.1" id="Layer_1" xmlns="http://www.w3.org/2000/svg" xmlns:xlink="http://www.w3.org/1999/xlink" x="0px" y="0px"
	 viewBox="116.4 33.6 118.4 131.2" enable-background="new 116.4 33.6 118.4 131.2" xml:space="preserve">
<g>
	<path fill="#F5F5F5" d="M168.8,55.1c0-1.3-1.3-2.6-2.6-2.6h-38.6v-4.1c0-0.8-0.8-1.5-1.5-1.9c-0.7-0.3-1.9-0.1-2.5,0.4l-6.5,7.2
		c-0.8,0.8-0.8,1.9,0,2.6l6.5,7.3c0.5,0.5,1.8,0.8,2.5,0.4c0.8-0.3,1.5-1,1.5-1.9v-5.1h38.6C167.5,57.8,168.8,56.5,168.8,55.1z"/>
	<path fill="#F5F5F5" d="M133.5,44.6h39.9v5.1c0,0.8,0.1,1.5,0.9,1.9c0.8,0.4,1.3,0.1,1.9-0.4l7.8-7.3c0.8-0.8,0.8-1.9,0-2.6
		l-7.8-7.3c-0.5-0.5-1.1-0.8-1.9-0.4c-0.8,0.2-0.9,1-0.9,1.9v4.1h-39.9c-1.3,0-2.6,1.3-2.6,2.6C130.9,43.7,132.1,44.6,133.5,44.6z"
		/>
	<path fill="#F5F5F5" d="M226.4,99.5c-0.5,0-1.9,0.1-3.3,0.6c-0.4-4.8-4.4-8.5-9.1-8.5c-2.1,0-4.1,0.7-5.8,2c-1.1-3.5-4.2-6-8-6
		c-2.5,0-4.8,1-6.4,2.8L193,66c0-5.6-4-9.9-9.1-9.9c-5.1,0-9.1,4.3-9.1,9.9l0.9,41.9c-1,0.6-2.6,1.6-4.8,3.5
		c-7.1,6.5-9.4,22.1-1.4,34.1c8.9,13.5,19.4,19.3,35,19.3c16.5,0,22-8.3,26.3-16.8c4.1-8.1,4.1-39.5,4.1-40.8
		C234.9,103.1,230.9,99.5,226.4,99.5z M227.3,146.4c-4,8-8.5,14.6-22.8,14.6c-14.4,0-23.5-5-31.7-17.5c-4.8-7.3-6.9-22.1,0.8-29.1
		c0.9-0.8,1.5-1.4,2.1-1.8l0.3,13.8c0,1.1,0.9,2,2,1.9c1.1,0,2-0.9,1.9-2l-1.3-60.1c0-3.5,2.1-5.9,5.3-5.9s5.3,2.4,5.3,6l1.3,36.6
		c0,1,0.9,1.9,1.9,1.9c1,0.1,1.9-0.6,2.1-1.6l1-5.9c0-0.1,0-0.3,0-0.4c0-3,2.1-5.3,4.9-5.3c3.1,0,4.6,2.8,4.6,5.3v3.9
		c0,1.1,0.9,2,2,2c1.1,0,2-0.9,2-2c0-2.9,2.4-5.3,5.3-5.3s5.3,2.4,5.3,5.3v8.5c0,1.1,0.9,2,2,2c1.1,0,2-0.9,2-2v-5
		c0.8-0.4,2.4-0.9,3.3-0.9c2.4,0,4.5,1.9,4.5,3.9C230.9,116.1,230.3,140.3,227.3,146.4z"/>
</g>
</svg>
