<?xml version="1.0" encoding="utf-8"?>
<!-- Generator: Adobe Illustrator 17.1.0, SVG Export Plug-In . SVG Version: 6.00 Build 0)  -->
<!DOCTYPE svg PUBLIC "-//W3C//DTD SVG 1.1//EN" "http://www.w3.org/Graphics/SVG/1.1/DTD/svg11.dtd">
<svg version="1.1" id="Layer_1" xmlns="http://www.w3.org/2000/svg" xmlns:xlink="http://www.w3.org/1999/xlink" x="0px" y="0px"
	 viewBox="9.2 33.3 94.2 132.2" enable-background="new 9.2 33.3 94.2 132.2" xml:space="preserve">
<g>
	<path fill="#F5F5F5" d="M35.4,85.6V45h5.4c0.7,0,1.5-0.3,1.9-1c0.4-0.8,0.1-1.5-0.4-2.1l-8-8c-0.8-0.8-2-0.8-2.9,0l-8,8
		c-0.6,0.6-0.8,1.3-0.4,2c0.3,0.8,1,1,1.9,1H30v40.6c0,1.4,1.4,2.6,2.6,2.6C34,88.4,35.4,87,35.4,85.6z"/>
	<path fill="#F5F5F5" d="M27.3,91.9h-5.4V52.1c0-1.4-1.4-2.6-2.6-2.6s-2.6,1.4-2.6,2.6v39.6h-5.4c-0.8,0-1.5,0.8-1.9,1.5
		C9,94,9.3,95,9.8,95.6l8,8.1c0.8,0.7,2,0.9,2.9,0l8-8c0.6-0.6,0.8-1.6,0.4-2.4C28.6,92.6,28.1,91.9,27.3,91.9z"/>
	<path fill="#F5F5F5" d="M94.9,98.4c-0.5,0-1.9,0.3-3.4,0.6c-0.4-4.9-4.4-8.6-9.4-8.6c-2.3,0-4.3,0.8-5.9,2.1
		c-1.3-3.6-4.4-6.1-8.3-6.1c-2.6,0-4.9,1-6.5,2.8l-0.9-24.9c0-5.8-4-10-9.4-10s-9.4,4.4-9.4,10.1l0.9,42.9c-1.1,0.6-2.8,1.6-4.9,3.6
		c-7.3,6.6-9.6,22.6-1.5,35c9.1,13.8,19.9,19.6,35.9,19.6c16.9,0,22.6-8.5,26.9-17.1c4.1-8.4,4.3-40.4,4.3-41.7
		C103.6,102.1,99.5,98.4,94.9,98.4z M95.8,146.4c-4.1,8.1-8.6,15-23.4,15c-14.6,0-24-5.1-32.5-17.9c-4.9-7.4-7-22.6,0.8-29.8
		c0.9-0.8,1.6-1.4,2.3-1.9l0.3,14c0,1.1,1,2,2,2c1.1,0,2-1,2-2l-1.4-61.6c0-3.5,2.3-6,5.4-6s5.4,2.5,5.4,6.1l1.4,37.5
		c0,1,0.9,1.9,1.9,1.9c1,0.1,2-0.6,2.1-1.6l1-6c0-0.1,0-0.3,0-0.4c0-3,2.1-5.4,5-5.4c3.2,0,4.8,2.8,4.8,5.4v4c0,1.1,0.9,2,2,2
		c1.1,0,2-0.9,2-2c0-3,2.4-5.4,5.4-5.4c3,0,5.4,2.4,5.4,5.4v8.8c0,1.1,0.9,2,2,2s2-0.9,2-2v-5.1c0.7-0.4,2.4-0.9,3.4-0.9
		c2.4,0,4.6,2,4.6,4C99.6,115.4,98.9,140.1,95.8,146.4z"/>
</g>
</svg>
