<?xml version="1.0" encoding="utf-8"?>
<!-- Generator: Adobe Illustrator 17.1.0, SVG Export Plug-In . SVG Version: 6.00 Build 0)  -->
<!DOCTYPE svg PUBLIC "-//W3C//DTD SVG 1.1//EN" "http://www.w3.org/Graphics/SVG/1.1/DTD/svg11.dtd">
<svg version="1.1" id="Layer_1" xmlns="http://www.w3.org/2000/svg" xmlns:xlink="http://www.w3.org/1999/xlink" x="0px" y="0px"
	 viewBox="0 0 200 160" enable-background="new 0 0 200 160" xml:space="preserve">
<g>
	<path fill="#F5F5F5" d="M28.3,48.5V16h4.3c0.6,0,1.2-0.2,1.5-0.8s0.1-1.2-0.3-1.7l-6.4-6.4c-0.6-0.6-1.6-0.6-2.3,0l-6.4,6.4
		c-0.5,0.5-0.6,1-0.3,1.6c0.2,0.6,0.8,0.8,1.5,0.8H24v32.5c0,1.1,1.1,2.1,2.1,2.1C27.2,50.7,28.3,49.6,28.3,48.5z"/>
	<path fill="#F5F5F5" d="M21.8,53.5h-4.3V21.7c0-1.1-1.1-2.1-2.1-2.1s-2.1,1.1-2.1,2.1v31.7H9c-0.6,0-1.2,0.6-1.5,1.2
		s-0.1,1.4,0.3,1.9l6.4,6.5c0.6,0.6,1.6,0.7,2.3,0l6.4-6.4c0.5-0.5,0.6-1.3,0.3-1.9S22.5,53.5,21.8,53.5z"/>
	<path fill="#F5F5F5" d="M75.9,58.7c-0.4,0-1.5,0.2-2.7,0.5c-0.3-3.9-3.5-6.9-7.5-6.9c-1.8,0-3.4,0.6-4.7,1.7
		c-1-2.9-3.5-4.9-6.6-4.9c-2.1,0-3.9,0.8-5.2,2.2l-0.7-19.9c0-4.6-3.2-8-7.5-8s-7.5,3.5-7.5,8.1l0.7,34.3c-0.9,0.5-2.2,1.3-3.9,2.9
		c-5.8,5.3-7.7,18.1-1.2,28c7.3,11,15.9,15.7,28.7,15.7c13.5,0,18.1-6.8,21.5-13.7c3.3-6.7,3.4-32.3,3.4-33.4
		C82.9,61.7,79.6,58.7,75.9,58.7z M76.6,97.1c-3.3,6.5-6.9,12-18.7,12c-11.7,0-19.2-4.1-26-14.3c-3.9-5.9-5.6-18.1,0.6-23.8
		c0.7-0.6,1.3-1.1,1.8-1.5l0.2,11.2c0,0.9,0.8,1.6,1.6,1.6c0.9,0,1.6-0.8,1.6-1.6l-1.1-49.3c0-2.8,1.8-4.8,4.3-4.8s4.3,2,4.3,4.9
		l1.1,30c0,0.8,0.7,1.5,1.5,1.5c0.8,0.1,1.6-0.5,1.7-1.3l0.8-4.8c0-0.1,0-0.2,0-0.3c0-2.4,1.7-4.3,4-4.3c2.6,0,3.8,2.2,3.8,4.3v3.2
		c0,0.9,0.7,1.6,1.6,1.6s1.6-0.7,1.6-1.6c0-2.4,1.9-4.3,4.3-4.3c2.4,0,4.3,1.9,4.3,4.3v7c0,0.9,0.7,1.6,1.6,1.6s1.6-0.7,1.6-1.6
		v-4.1c0.6-0.3,1.9-0.7,2.7-0.7c1.9,0,3.7,1.6,3.7,3.2C79.7,72.3,79.1,92.1,76.6,97.1z"/>
</g>
<g>
	<path fill="#F5F5F5" d="M135,24.1c0-1-1-2.1-2.1-2.1H102v-3.3c0-0.6-0.6-1.2-1.2-1.5c-0.6-0.2-1.5-0.1-2,0.3l-5.2,5.8
		c-0.6,0.6-0.6,1.5,0,2.1l5.2,5.8c0.4,0.4,1.4,0.6,2,0.3c0.6-0.2,1.2-0.8,1.2-1.5v-4.1h30.9C134,26.2,135,25.2,135,24.1z"/>
	<path fill="#F5F5F5" d="M106.8,15.7h31.9v4.1c0,0.6,0.1,1.2,0.7,1.5s1,0.1,1.5-0.3l6.2-5.8c0.6-0.6,0.6-1.5,0-2.1l-6.2-5.8
		c-0.4-0.4-0.9-0.6-1.5-0.3c-0.6,0.2-0.7,0.8-0.7,1.5v3.3h-31.9c-1,0-2.1,1-2.1,2.1S105.7,15.7,106.8,15.7z"/>
	<path fill="#F5F5F5" d="M181.1,59.6c-0.4,0-1.5,0.1-2.6,0.5c-0.3-3.8-3.5-6.8-7.3-6.8c-1.7,0-3.3,0.6-4.6,1.6
		c-0.9-2.8-3.4-4.8-6.4-4.8c-2,0-3.8,0.8-5.1,2.2l-0.7-19.5c0-4.5-3.2-7.9-7.3-7.9s-7.3,3.4-7.3,7.9l0.7,33.5
		c-0.8,0.5-2.1,1.3-3.8,2.8c-5.7,5.2-7.5,17.7-1.1,27.3c7.1,10.8,15.5,15.4,28,15.4c13.2,0,17.6-6.6,21-13.4
		c3.3-6.5,3.3-31.6,3.3-32.6C187.9,62.5,184.7,59.6,181.1,59.6z M181.8,97.1c-3.2,6.4-6.8,11.7-18.2,11.7c-11.5,0-18.8-4-25.4-14
		c-3.8-5.8-5.5-17.7,0.6-23.3c0.7-0.6,1.2-1.1,1.7-1.4l0.2,11c0,0.9,0.7,1.6,1.6,1.5c0.9,0,1.6-0.7,1.5-1.6l-1-48.1
		c0-2.8,1.7-4.7,4.2-4.7s4.2,1.9,4.2,4.8l1,29.3c0,0.8,0.7,1.5,1.5,1.5c0.8,0.1,1.5-0.5,1.7-1.3l0.8-4.7c0-0.1,0-0.2,0-0.3
		c0-2.4,1.7-4.2,3.9-4.2c2.5,0,3.7,2.2,3.7,4.2v3.1c0,0.9,0.7,1.6,1.6,1.6s1.6-0.7,1.6-1.6c0-2.3,1.9-4.2,4.2-4.2
		c2.3,0,4.2,1.9,4.2,4.2v6.8c0,0.9,0.7,1.6,1.6,1.6c0.9,0,1.6-0.7,1.6-1.6v-4c0.6-0.3,1.9-0.7,2.6-0.7c1.9,0,3.6,1.5,3.6,3.1
		C184.7,72.9,184.2,92.2,181.8,97.1z"/>
</g>
<g>
	<path fill="#F5F5F5" d="M31.4,124.1c-0.9,0-1.5,0.3-2,1c-0.5,0.7-0.7,1.6-0.7,2.7c0,2.4,0.9,3.6,2.7,3.6c0.8,0,1.7-0.2,2.8-0.6v1.9
		c-0.9,0.4-1.9,0.6-3,0.6c-1.6,0-2.8-0.5-3.6-1.4c-0.8-1-1.3-2.3-1.3-4.1c0-1.1,0.2-2.1,0.6-3c0.4-0.9,1-1.5,1.8-2
		c0.8-0.5,1.7-0.7,2.7-0.7c1.1,0,2.1,0.3,3.2,0.8l-0.7,1.9c-0.4-0.2-0.8-0.4-1.2-0.5S31.8,124.1,31.4,124.1z"/>
	<path fill="#F5F5F5" d="M44,133.2h-2.3v-4.9c0-1.2-0.4-1.8-1.3-1.8c-0.6,0-1.1,0.2-1.4,0.6c-0.3,0.4-0.4,1.1-0.4,2.1v3.9h-2.3
		v-11.6h2.3v2.4c0,0.2,0,0.6-0.1,1.3l-0.1,0.7h0.1c0.5-0.8,1.3-1.2,2.4-1.2c1,0,1.7,0.3,2.2,0.8s0.8,1.3,0.8,2.3V133.2z"/>
	<path fill="#F5F5F5" d="M51.6,133.2l-0.4-1.1h-0.1c-0.4,0.5-0.8,0.8-1.2,1c-0.4,0.2-0.9,0.3-1.6,0.3c-0.8,0-1.4-0.2-1.9-0.7
		s-0.7-1.1-0.7-1.9c0-0.9,0.3-1.5,0.9-2c0.6-0.4,1.5-0.7,2.8-0.7l1.4,0v-0.4c0-0.8-0.4-1.3-1.3-1.3c-0.7,0-1.4,0.2-2.3,0.6l-0.8-1.5
		c1-0.5,2-0.8,3.2-0.8c1.1,0,2,0.2,2.6,0.7c0.6,0.5,0.9,1.2,0.9,2.2v5.5H51.6z M50.9,129.4l-0.9,0c-0.7,0-1.2,0.1-1.5,0.4
		c-0.3,0.2-0.5,0.6-0.5,1c0,0.6,0.4,1,1.1,1c0.5,0,0.9-0.2,1.3-0.5s0.5-0.7,0.5-1.2V129.4z"/>
	<path fill="#F5F5F5" d="M63.2,133.2h-2.3v-4.9c0-0.6-0.1-1.1-0.3-1.4c-0.2-0.3-0.6-0.5-1-0.5c-0.6,0-1.1,0.2-1.4,0.6
		c-0.3,0.4-0.4,1.1-0.4,2.1v3.9h-2.3v-8.3h1.7l0.3,1.1h0.1c0.3-0.4,0.6-0.7,1-0.9c0.4-0.2,0.9-0.3,1.5-0.3c1,0,1.7,0.3,2.2,0.8
		c0.5,0.5,0.8,1.3,0.8,2.3V133.2z"/>
	<path fill="#F5F5F5" d="M72.8,133.2c0,1.2-0.3,2.1-1,2.7c-0.7,0.6-1.7,0.9-3.1,0.9c-1.2,0-2.3-0.2-3.1-0.5v-1.8
		c1,0.4,2.1,0.6,3.2,0.6c1.2,0,1.7-0.6,1.7-1.9v-0.2l0.1-1h-0.1c-0.5,0.8-1.3,1.2-2.4,1.2c-1,0-1.8-0.4-2.3-1.2
		c-0.5-0.8-0.8-1.8-0.8-3.1c0-1.4,0.3-2.4,0.9-3.2c0.6-0.8,1.4-1.1,2.3-1.1c1,0,1.8,0.4,2.4,1.2h0.1l0.2-1.1h1.9V133.2z M69,131.6
		c0.6,0,1-0.2,1.3-0.5c0.3-0.3,0.4-0.9,0.4-1.7v-0.3c0-0.9-0.1-1.5-0.4-1.9c-0.3-0.4-0.7-0.6-1.3-0.6c-1.1,0-1.6,0.8-1.6,2.5
		c0,0.8,0.1,1.5,0.4,1.9C68,131.4,68.4,131.6,69,131.6z"/>
	<path fill="#F5F5F5" d="M78.9,133.4c-1.3,0-2.4-0.4-3.1-1.1c-0.8-0.7-1.1-1.8-1.1-3.1c0-1.4,0.3-2.5,1-3.2c0.7-0.8,1.7-1.1,2.9-1.1
		c1.2,0,2.1,0.3,2.7,1c0.7,0.7,1,1.6,1,2.8v1.1H77c0,0.6,0.2,1.1,0.6,1.5c0.4,0.4,0.9,0.5,1.5,0.5c0.5,0,1-0.1,1.4-0.2
		c0.4-0.1,0.9-0.3,1.4-0.5v1.8c-0.4,0.2-0.8,0.3-1.3,0.4C80.1,133.3,79.6,133.4,78.9,133.4z M78.6,126.4c-0.5,0-0.9,0.2-1.1,0.5
		c-0.3,0.3-0.4,0.7-0.5,1.3h3.2c0-0.6-0.2-1-0.4-1.3C79.5,126.5,79.1,126.4,78.6,126.4z"/>
	<path fill="#F5F5F5" d="M33,140.6h2.3l-3.7,10.9h-2.5l-3.7-10.9h2.3l2,6.5c0.1,0.4,0.2,0.8,0.4,1.3c0.1,0.5,0.2,0.9,0.2,1.1
		c0.1-0.5,0.2-1.3,0.6-2.4L33,140.6z"/>
	<path fill="#F5F5F5" d="M43.9,147.3c0,1.4-0.4,2.4-1.1,3.2c-0.7,0.8-1.7,1.1-3,1.1c-0.8,0-1.5-0.2-2.1-0.5
		c-0.6-0.3-1.1-0.9-1.4-1.5c-0.3-0.7-0.5-1.4-0.5-2.3c0-1.4,0.4-2.4,1.1-3.2c0.7-0.8,1.7-1.1,3-1.1c0.8,0,1.5,0.2,2.1,0.5
		s1.1,0.8,1.4,1.5C43.7,145.7,43.9,146.5,43.9,147.3z M38.2,147.3c0,0.8,0.1,1.4,0.4,1.9c0.3,0.4,0.7,0.6,1.3,0.6
		c0.6,0,1-0.2,1.3-0.6c0.3-0.4,0.4-1,0.4-1.9c0-0.8-0.1-1.4-0.4-1.9c-0.3-0.4-0.7-0.6-1.3-0.6c-0.6,0-1,0.2-1.3,0.6
		C38.3,145.9,38.2,146.5,38.2,147.3z"/>
	<path fill="#F5F5F5" d="M48,151.5h-2.3v-11.6H48V151.5z"/>
	<path fill="#F5F5F5" d="M56.3,151.5l-0.3-1.1h-0.1c-0.2,0.4-0.6,0.7-1,0.9c-0.4,0.2-1,0.3-1.5,0.3c-1,0-1.7-0.3-2.2-0.8
		c-0.5-0.5-0.7-1.3-0.7-2.3v-5.4h2.3v4.9c0,0.6,0.1,1,0.3,1.3c0.2,0.3,0.6,0.4,1,0.4c0.6,0,1.1-0.2,1.4-0.6c0.3-0.4,0.4-1.1,0.4-2.1
		v-3.9h2.3v8.3H56.3z"/>
	<path fill="#F5F5F5" d="M67.9,151.5h-2.3v-4.9c0-0.6-0.1-1.1-0.3-1.4c-0.2-0.3-0.5-0.5-0.9-0.5c-0.6,0-1,0.2-1.3,0.6
		s-0.4,1.1-0.4,2.1v3.9h-2.3v-8.3h1.7l0.3,1.1h0.1c0.2-0.4,0.5-0.7,1-0.9c0.4-0.2,0.9-0.3,1.5-0.3c1.2,0,2.1,0.4,2.5,1.2h0.2
		c0.2-0.4,0.6-0.7,1-0.9c0.4-0.2,0.9-0.3,1.5-0.3c0.9,0,1.7,0.2,2.1,0.7c0.5,0.5,0.7,1.3,0.7,2.3v5.4h-2.3v-4.9
		c0-0.6-0.1-1.1-0.3-1.4c-0.2-0.3-0.5-0.5-0.9-0.5c-0.6,0-1,0.2-1.2,0.6c-0.3,0.4-0.4,1-0.4,1.9V151.5z"/>
	<path fill="#F5F5F5" d="M79.2,151.6c-1.3,0-2.4-0.4-3.1-1.1c-0.8-0.7-1.1-1.8-1.1-3.1c0-1.4,0.3-2.5,1-3.2c0.7-0.8,1.7-1.1,2.9-1.1
		c1.2,0,2.1,0.3,2.7,1c0.7,0.7,1,1.6,1,2.8v1.1h-5.4c0,0.6,0.2,1.1,0.6,1.5c0.4,0.4,0.9,0.5,1.5,0.5c0.5,0,1-0.1,1.4-0.2
		c0.4-0.1,0.9-0.3,1.4-0.5v1.8c-0.4,0.2-0.8,0.3-1.3,0.4C80.4,151.6,79.8,151.6,79.2,151.6z M78.8,144.6c-0.5,0-0.9,0.2-1.1,0.5
		c-0.3,0.3-0.4,0.7-0.5,1.3h3.2c0-0.6-0.2-1-0.4-1.3C79.7,144.8,79.3,144.6,78.8,144.6z"/>
</g>
<g>
	<path fill="#F5F5F5" d="M136.7,130.2c0,1-0.4,1.8-1.1,2.3c-0.7,0.6-1.7,0.8-2.9,0.8c-1.2,0-2.2-0.2-3.1-0.7v-2.1
		c0.7,0.3,1.4,0.6,1.9,0.7c0.5,0.1,1,0.2,1.4,0.2c0.5,0,0.9-0.1,1.2-0.3c0.3-0.2,0.4-0.5,0.4-0.9c0-0.2-0.1-0.4-0.2-0.6
		c-0.1-0.2-0.3-0.3-0.5-0.5c-0.2-0.2-0.7-0.4-1.4-0.7c-0.7-0.3-1.2-0.6-1.5-0.9c-0.3-0.3-0.6-0.6-0.8-1c-0.2-0.4-0.3-0.8-0.3-1.3
		c0-1,0.3-1.7,1-2.3c0.7-0.6,1.6-0.8,2.7-0.8c0.6,0,1.1,0.1,1.6,0.2c0.5,0.1,1,0.3,1.6,0.6l-0.7,1.8c-0.6-0.2-1.1-0.4-1.4-0.5
		c-0.4-0.1-0.8-0.1-1.1-0.1c-0.4,0-0.8,0.1-1,0.3c-0.2,0.2-0.3,0.5-0.3,0.8c0,0.2,0,0.4,0.1,0.5c0.1,0.2,0.2,0.3,0.5,0.4
		c0.2,0.1,0.7,0.4,1.5,0.8c1,0.5,1.7,1,2.1,1.5C136.5,128.9,136.7,129.5,136.7,130.2z"/>
	<path fill="#F5F5F5" d="M142.3,133.4c-1.3,0-2.4-0.4-3.1-1.1c-0.8-0.7-1.1-1.8-1.1-3.1c0-1.4,0.3-2.5,1-3.2
		c0.7-0.8,1.7-1.1,2.9-1.1c1.2,0,2.1,0.3,2.7,1s1,1.6,1,2.8v1.1h-5.4c0,0.6,0.2,1.1,0.6,1.5c0.4,0.4,0.9,0.5,1.5,0.5
		c0.5,0,1-0.1,1.4-0.2c0.4-0.1,0.9-0.3,1.4-0.5v1.8c-0.4,0.2-0.8,0.3-1.3,0.4C143.5,133.3,142.9,133.4,142.3,133.4z M142,126.4
		c-0.5,0-0.9,0.2-1.1,0.5c-0.3,0.3-0.4,0.7-0.5,1.3h3.2c0-0.6-0.2-1-0.4-1.3C142.8,126.5,142.4,126.4,142,126.4z"/>
	<path fill="#F5F5F5" d="M151.3,133.4c-1.3,0-2.4-0.4-3.1-1.1c-0.8-0.7-1.1-1.8-1.1-3.1c0-1.4,0.3-2.5,1-3.2
		c0.7-0.8,1.7-1.1,2.9-1.1c1.2,0,2.1,0.3,2.7,1c0.7,0.7,1,1.6,1,2.8v1.1h-5.4c0,0.6,0.2,1.1,0.6,1.5c0.4,0.4,0.9,0.5,1.5,0.5
		c0.5,0,1-0.1,1.4-0.2c0.4-0.1,0.9-0.3,1.4-0.5v1.8c-0.4,0.2-0.8,0.3-1.3,0.4C152.5,133.3,151.9,133.4,151.3,133.4z M151,126.4
		c-0.5,0-0.9,0.2-1.1,0.5c-0.3,0.3-0.4,0.7-0.5,1.3h3.2c0-0.6-0.2-1-0.4-1.3C151.8,126.5,151.4,126.4,151,126.4z"/>
	<path fill="#F5F5F5" d="M158.7,128.7l1-1.3l2.3-2.5h2.6l-3.3,3.6l3.5,4.7h-2.6l-2.4-3.4l-1,0.8v2.6h-2.3v-11.6h2.3v5.2L158.7,128.7
		L158.7,128.7z"/>
	<path fill="#F5F5F5" d="M137.8,144c0,1.2-0.4,2.1-1.1,2.7c-0.7,0.6-1.8,0.9-3.1,0.9h-1v3.9h-2.3v-10.9h3.5c1.3,0,2.3,0.3,3,0.9
		C137.5,142,137.8,142.9,137.8,144z M132.6,145.7h0.8c0.7,0,1.2-0.1,1.6-0.4c0.4-0.3,0.5-0.7,0.5-1.2c0-0.5-0.1-0.9-0.4-1.2
		c-0.3-0.3-0.8-0.4-1.4-0.4h-1V145.7z"/>
	<path fill="#F5F5F5" d="M147.2,147.3c0,1.4-0.4,2.4-1.1,3.2c-0.7,0.8-1.7,1.1-3,1.1c-0.8,0-1.5-0.2-2.1-0.5
		c-0.6-0.3-1.1-0.9-1.4-1.5c-0.3-0.7-0.5-1.4-0.5-2.3c0-1.4,0.4-2.4,1.1-3.2c0.7-0.8,1.7-1.1,3-1.1c0.8,0,1.5,0.2,2.1,0.5
		c0.6,0.3,1.1,0.8,1.4,1.5S147.2,146.5,147.2,147.3z M141.5,147.3c0,0.8,0.1,1.4,0.4,1.9c0.3,0.4,0.7,0.6,1.3,0.6
		c0.6,0,1-0.2,1.3-0.6c0.3-0.4,0.4-1,0.4-1.9c0-0.8-0.1-1.4-0.4-1.9c-0.3-0.4-0.7-0.6-1.3-0.6c-0.6,0-1,0.2-1.3,0.6
		C141.6,145.9,141.5,146.5,141.5,147.3z"/>
	<path fill="#F5F5F5" d="M154.9,149c0,0.9-0.3,1.5-0.9,1.9c-0.6,0.4-1.5,0.7-2.7,0.7c-0.6,0-1.1,0-1.5-0.1c-0.4-0.1-0.8-0.2-1.2-0.4
		v-1.9c0.4,0.2,0.9,0.4,1.4,0.5c0.5,0.1,1,0.2,1.4,0.2c0.8,0,1.2-0.2,1.2-0.7c0-0.2-0.1-0.3-0.2-0.4c-0.1-0.1-0.3-0.2-0.6-0.4
		c-0.3-0.1-0.6-0.3-1.1-0.5c-0.6-0.3-1.1-0.5-1.4-0.7c-0.3-0.2-0.5-0.5-0.7-0.8c-0.1-0.3-0.2-0.7-0.2-1.1c0-0.7,0.3-1.3,0.9-1.7
		c0.6-0.4,1.4-0.6,2.4-0.6c1,0,2,0.2,2.9,0.7l-0.7,1.6c-0.4-0.2-0.8-0.3-1.2-0.4c-0.4-0.1-0.7-0.2-1.1-0.2c-0.7,0-1,0.2-1,0.5
		c0,0.2,0.1,0.4,0.3,0.5c0.2,0.1,0.7,0.4,1.4,0.7c0.6,0.3,1.1,0.5,1.4,0.7c0.3,0.2,0.5,0.5,0.7,0.8
		C154.8,148.3,154.9,148.6,154.9,149z"/>
	<path fill="#F5F5F5" d="M156.6,141c0-0.7,0.4-1.1,1.2-1.1c0.8,0,1.2,0.4,1.2,1.1c0,0.4-0.1,0.6-0.3,0.8c-0.2,0.2-0.5,0.3-0.9,0.3
		C157,142.1,156.6,141.8,156.6,141z M159,151.5h-2.3v-8.3h2.3V151.5z"/>
	<path fill="#F5F5F5" d="M164.8,149.8c0.4,0,0.9-0.1,1.4-0.3v1.7c-0.6,0.3-1.3,0.4-2.1,0.4c-0.9,0-1.6-0.2-2-0.7
		c-0.4-0.5-0.6-1.1-0.6-2.1v-4h-1.1v-1l1.2-0.8l0.7-1.8h1.4v1.8h2.3v1.7h-2.3v4c0,0.3,0.1,0.6,0.3,0.7
		C164.3,149.8,164.5,149.8,164.8,149.8z"/>
	<path fill="#F5F5F5" d="M167.9,141c0-0.7,0.4-1.1,1.2-1.1c0.8,0,1.2,0.4,1.2,1.1c0,0.4-0.1,0.6-0.3,0.8c-0.2,0.2-0.5,0.3-0.9,0.3
		C168.3,142.1,167.9,141.8,167.9,141z M170.2,151.5h-2.3v-8.3h2.3V151.5z"/>
	<path fill="#F5F5F5" d="M180.2,147.3c0,1.4-0.4,2.4-1.1,3.2c-0.7,0.8-1.7,1.1-3,1.1c-0.8,0-1.5-0.2-2.1-0.5
		c-0.6-0.3-1.1-0.9-1.4-1.5c-0.3-0.7-0.5-1.4-0.5-2.3c0-1.4,0.4-2.4,1.1-3.2c0.7-0.8,1.7-1.1,3-1.1c0.8,0,1.5,0.2,2.1,0.5
		s1.1,0.8,1.4,1.5S180.2,146.5,180.2,147.3z M174.4,147.3c0,0.8,0.1,1.4,0.4,1.9c0.3,0.4,0.7,0.6,1.3,0.6c0.6,0,1-0.2,1.3-0.6
		c0.3-0.4,0.4-1,0.4-1.9c0-0.8-0.1-1.4-0.4-1.9c-0.3-0.4-0.7-0.6-1.3-0.6c-0.6,0-1,0.2-1.3,0.6C174.5,145.9,174.4,146.5,174.4,147.3
		z"/>
	<path fill="#F5F5F5" d="M189.7,151.5h-2.3v-4.9c0-0.6-0.1-1.1-0.3-1.4c-0.2-0.3-0.6-0.5-1-0.5c-0.6,0-1.1,0.2-1.4,0.6
		c-0.3,0.4-0.4,1.1-0.4,2.1v3.9H182v-8.3h1.7l0.3,1.1h0.1c0.3-0.4,0.6-0.7,1-0.9c0.4-0.2,0.9-0.3,1.5-0.3c1,0,1.7,0.3,2.2,0.8
		c0.5,0.5,0.8,1.3,0.8,2.3V151.5z"/>
</g>
</svg>
