<?xml version="1.0" encoding="utf-8"?>
<!-- Generator: Adobe Illustrator 17.0.0, SVG Export Plug-In . SVG Version: 6.00 Build 0)  -->
<!DOCTYPE svg PUBLIC "-//W3C//DTD SVG 1.1//EN" "http://www.w3.org/Graphics/SVG/1.1/DTD/svg11.dtd">
<svg version="1.1" id="Layer_1" xmlns="http://www.w3.org/2000/svg" xmlns:xlink="http://www.w3.org/1999/xlink" x="0px" y="0px"
	 width="512px" height="512px" viewBox="0 0 512 512" enable-background="new 0 0 512 512" xml:space="preserve">
<g>
	<path fill="#141414" d="M255.706,508c-56.972,0-112.138-18.091-155.337-50.939c-42.618-32.407-71.123-77.15-80.263-125.988
		l-1.587-8.479l-0.111,0.136c-4.189-21.793-14.828-83.584-14.395-146.97l0.017-2.854C4.783,43.092,19.857,14.13,28.775,8.42
		C33.356,5.487,40.39,4,49.68,4c34.202,0,86.732,19.93,105.301,30.613c45.002,25.892,66.468,46.377,69.557,49.431
		c0.611,0.881,1.61,1.596,3.042,1.858c0.57,0.104,1.251,0.153,2.145,0.153c2.413,0,6.32-0.361,10.844-0.778
		c5.217-0.481,11.13-1.027,15.137-1.027c4.071,0,10.079,0.574,15.379,1.081c4.641,0.443,8.648,0.826,11.146,0.826
		c3.451,0,4.972-1.196,5.607-2.484c4.187-4.072,25.696-24.042,69.181-49.061C375.588,23.93,428.117,4,462.32,4
		c9.29,0,16.323,1.487,20.903,4.42c8.918,5.71,23.992,34.671,24.746,164.479l0.018,2.859
		c0.435,63.582-10.271,125.558-14.433,147.169l-0.615-0.727l-1.529,8.313c-9.013,48.965-37.472,93.844-80.135,126.369
		C368.038,489.847,312.788,508,255.706,508z"/>
	<path fill="#FFFFFF" d="M50,0l-0.157,8c33.506,0.003,84.982,19.584,103.225,30.08c43.317,24.923,64.517,44.733,68.371,48.487
		c1.343,1.841,3.787,3.488,8.306,3.488c2.597,0,6.579-0.368,11.202-0.795c5.131-0.473,10.941-1.01,14.764-1.01
		c3.881,0,9.786,0.565,14.998,1.063c4.742,0.453,8.835,0.845,11.523,0.845c4.871,0,7.378-1.885,8.668-3.88
		c4.578-4.41,25.827-23.868,68.114-48.198C377.26,27.583,428.82,8,462.32,8c8.393,0,14.876,1.31,18.747,3.789
		c3.089,1.978,13.604,13.019,19.215,72.061c3.376,35.53,3.594,73.052,3.687,89.075l0.017,2.861
		c0.386,56.45-8.067,111.663-12.825,138.126l-0.628-0.742l-3.059,16.62c-8.832,47.986-36.755,91.992-78.625,123.912
		c-20.844,15.891-44.392,28.301-69.99,36.885C312.324,499.488,284.346,504,255.706,504c-28.588,0-56.517-4.496-83.011-13.364
		c-25.557-8.554-49.077-20.922-69.905-36.76c-41.827-31.805-69.795-75.679-78.752-123.54l-3.125-16.594l-0.089,0.106
		c-4.76-26.474-13.197-81.61-12.811-138.063l0.017-2.861c0.093-16.023,0.311-53.545,3.687-89.075
		c5.611-59.042,16.29-70.083,19.379-72.061C34.968,9.31,41,8,50,8V0 M462.32,0c-34.419,0-87.492,19.752-107.296,31.146
		C305.239,59.79,284.192,81.66,284.192,81.66l0.071,0.084c0,0.296-0.752,0.414-2.031,0.414c-5.137,0-18.79-1.907-26.526-1.907
		c-7.586,0-21.001,1.804-25.981,1.804c-1.218,0-1.932-0.108-1.932-0.377l0.016-0.018c0,0-21.047-21.87-70.833-50.514
		C137.174,19.753,84.099,0.003,49.68,0c-9.456-0.001-17.497,1.489-23.061,5.051C0.072,22.048,0.198,148.633,0.013,175.732
		c-0.546,79.841,16.145,156.096,16.145,156.096l0.015-0.018C35.309,434.05,135.258,512,255.706,512
		c120.672,0,220.769-78.24,239.638-180.762l0.498,0.589c0,0,16.691-76.254,16.145-156.096
		c-0.185-27.098-0.059-153.684-26.606-170.68C479.818,1.49,471.772,0,462.32,0L462.32,0z"/>
</g>
<ellipse fill="#FFFFFF" cx="139.62" cy="295.701" rx="105.827" ry="147.178"/>
<ellipse cx="139.627" cy="295.288" rx="60.25" ry="91.361"/>
<ellipse fill="#FFFFFF" cx="371.302" cy="295.701" rx="105.827" ry="147.178"/>
<ellipse cx="371.295" cy="295.288" rx="60.25" ry="91.361"/>
</svg>
