<?xml version="1.0" encoding="utf-8"?>
<!-- Generator: Adobe Illustrator 17.1.0, SVG Export Plug-In . SVG Version: 6.00 Build 0)  -->
<!DOCTYPE svg PUBLIC "-//W3C//DTD SVG 1.1//EN" "http://www.w3.org/Graphics/SVG/1.1/DTD/svg11.dtd">
<svg version="1.1" id="Layer_1" xmlns="http://www.w3.org/2000/svg" xmlns:xlink="http://www.w3.org/1999/xlink" x="0px" y="0px"
	 viewBox="0 0 12 16" enable-background="new 0 0 12 16" xml:space="preserve">
<path fill="#F5F5F5" d="M10.7,1.5H7.9C7.6,0.6,6.9,0,6,0S4.4,0.6,4.1,1.5H1.3C0.6,1.5,0,2.1,0,2.9v11.6C0,15.3,0.6,16,1.3,16h9.3
	c0.7,0,1.3-0.7,1.3-1.5V2.9C12,2.1,11.4,1.5,10.7,1.5z M6,1.5c0.4,0,0.7,0.3,0.7,0.7S6.4,2.9,6,2.9S5.3,2.6,5.3,2.2S5.6,1.5,6,1.5z
	 M10.7,14.5H1.3V2.9h1.3v2.2h6.7V2.9h1.3V14.5z"/>
<path fill="none" d="M0,0h24v24H0V0z"/>
</svg>
