<?xml version="1.0" encoding="utf-8"?>
<!-- Generator: Adobe Illustrator 17.1.0, SVG Export Plug-In . SVG Version: 6.00 Build 0)  -->
<!DOCTYPE svg PUBLIC "-//W3C//DTD SVG 1.1//EN" "http://www.w3.org/Graphics/SVG/1.1/DTD/svg11.dtd">
<svg version="1.1" id="Layer_1" xmlns="http://www.w3.org/2000/svg" xmlns:xlink="http://www.w3.org/1999/xlink" x="0px" y="0px"
	 viewBox="313.3 192 16 16" enable-background="new 313.3 192 16 16" xml:space="preserve">
<path fill="#808080" d="M329.1,200.1c0,0.6,0,1-0.1,1.6c-0.1,0.5-0.2,1-0.5,1.5s-0.5,0.9-0.7,1.4c-0.3,0.5-0.6,0.8-0.9,1.1l2.3,2.3
	h-6.5v-6.4l2.4,2.4c0.5-0.5,0.9-1,1.1-1.7c0.3-0.7,0.5-1.4,0.5-2.2c0-0.5-0.1-1-0.2-1.5c-0.1-0.5-0.3-0.9-0.6-1.4
	c-0.2-0.5-0.6-0.8-0.9-1.1c-0.3-0.3-0.7-0.7-1.1-0.9c-0.5-0.2-0.9-0.5-1.4-0.6c-0.3-0.1-0.9-0.2-1.4-0.2c-0.8,0-1.5,0.1-2.2,0.5
	c-0.7,0.2-1.2,0.7-1.8,1.1c-0.5,0.5-0.9,1-1.1,1.7c-0.3,0.7-0.5,1.4-0.5,2.2c0,0.5,0.1,0.9,0.2,1.4c0.1,0.5,0.3,0.9,0.6,1.3
	c0.2,0.5,0.5,0.8,0.8,1.1c0.2,0.3,0.6,0.7,0.9,0.9l-1.7,1.7c-0.5-0.3-0.9-0.8-1.4-1.3c-0.5-0.5-0.7-1-0.9-1.5
	c-0.2-0.6-0.5-1.1-0.7-1.7c-0.2-0.6-0.2-1.4-0.2-1.9c0-0.8,0.1-1.5,0.3-2.2s0.5-1.3,0.8-1.8c0.3-0.6,0.7-1.1,1.1-1.6
	c0.5-0.5,1-0.9,1.6-1.3c0.6-0.3,1.2-0.6,1.9-0.8c0.7-0.2,1.4-0.2,2.2-0.2c0.7,0,1.4,0.1,2,0.3c0.7,0.2,1.4,0.5,1.9,0.8
	c0.6,0.3,1.1,0.8,1.6,1.3c0.5,0.5,0.9,1,1.2,1.6s0.6,1.3,0.8,1.9C329,198.6,329.1,199.4,329.1,200.1z"/>
</svg>
