<?xml version="1.0" encoding="utf-8"?>
<!-- Generator: Adobe Illustrator 17.0.0, SVG Export Plug-In . SVG Version: 6.00 Build 0)  -->
<!DOCTYPE svg PUBLIC "-//W3C//DTD SVG 1.1//EN" "http://www.w3.org/Graphics/SVG/1.1/DTD/svg11.dtd">
<svg version="1.1" id="Layer_1" xmlns="http://www.w3.org/2000/svg" xmlns:xlink="http://www.w3.org/1999/xlink" x="0px" y="0px"
	 width="16px" height="16px" viewBox="0 0 16 16" enable-background="new 0 0 16 16" xml:space="preserve">
<path fill="#5A5A5A" d="M15,8.104c0,0.478-0.048,0.941-0.143,1.391c-0.096,0.449-0.23,0.879-0.404,1.29
	c-0.175,0.411-0.387,0.8-0.638,1.168c-0.25,0.368-0.534,0.705-0.849,1.011L15,15H9.406V9.394l2.077,2.079
	c0.439-0.435,0.785-0.943,1.039-1.523c0.252-0.581,0.379-1.208,0.379-1.882c0-0.449-0.06-0.884-0.179-1.305
	c-0.12-0.421-0.287-0.815-0.502-1.183c-0.214-0.368-0.472-0.705-0.774-1.011c-0.3-0.306-0.633-0.567-0.999-0.785
	C10.082,3.567,9.693,3.398,9.28,3.278C8.868,3.16,8.439,3.1,7.996,3.1c-0.689,0-1.329,0.124-1.923,0.373
	C5.477,3.722,4.96,4.062,4.521,4.494c-0.439,0.433-0.784,0.94-1.035,1.523C3.236,6.601,3.11,7.227,3.11,7.896
	c0,0.43,0.054,0.845,0.161,1.243c0.108,0.4,0.259,0.776,0.455,1.129c0.196,0.354,0.431,0.68,0.705,0.978
	c0.275,0.299,0.579,0.561,0.914,0.785l-1.483,1.491c-0.43-0.325-0.82-0.695-1.171-1.111s-0.651-0.865-0.899-1.348
	C1.544,10.582,1.353,10.07,1.219,9.53S1.018,8.431,1.018,7.853c0-0.636,0.081-1.246,0.244-1.831S1.655,4.889,1.953,4.38
	c0.298-0.508,0.659-0.97,1.082-1.383c0.422-0.413,0.892-0.768,1.407-1.065s1.072-0.526,1.669-0.688S7.334,1,7.988,1
	c0.63,0,1.242,0.086,1.834,0.258s1.148,0.413,1.669,0.724c0.52,0.311,0.995,0.683,1.425,1.118s0.798,0.917,1.107,1.445
	c0.308,0.528,0.547,1.092,0.719,1.692C14.914,6.836,15,7.459,15,8.104z"/>
</svg>
