<?xml version="1.0" encoding="utf-8"?>
<!-- Generator: Adobe Illustrator 17.1.0, SVG Export Plug-In . SVG Version: 6.00 Build 0)  -->
<!DOCTYPE svg PUBLIC "-//W3C//DTD SVG 1.1//EN" "http://www.w3.org/Graphics/SVG/1.1/DTD/svg11.dtd">
<svg version="1.1" id="Layer_1" xmlns="http://www.w3.org/2000/svg" xmlns:xlink="http://www.w3.org/1999/xlink" x="0px" y="0px"
	 viewBox="0 0 16 16" enable-background="new 0 0 16 16" xml:space="preserve">
<path fill="#808080" d="M15,8.1c0,0.5,0,0.9-0.1,1.4c-0.1,0.4-0.2,0.9-0.4,1.3c-0.2,0.4-0.4,0.8-0.6,1.2c-0.3,0.4-0.5,0.7-0.8,1l2,2
	H9.4V9.4l2.1,2.1c0.4-0.4,0.8-0.9,1-1.5c0.3-0.6,0.4-1.2,0.4-1.9c0-0.4-0.1-0.9-0.2-1.3c-0.1-0.4-0.3-0.8-0.5-1.2
	c-0.2-0.4-0.5-0.7-0.8-1c-0.3-0.3-0.6-0.6-1-0.8c-0.4-0.2-0.8-0.4-1.2-0.5C8.9,3.2,8.4,3.1,8,3.1c-0.7,0-1.3,0.1-1.9,0.4
	C5.5,3.7,5,4.1,4.5,4.5C4.1,4.9,3.7,5.4,3.5,6C3.2,6.6,3.1,7.2,3.1,7.9c0,0.4,0.1,0.8,0.2,1.2c0.1,0.4,0.3,0.8,0.5,1.1
	c0.2,0.4,0.4,0.7,0.7,1C4.7,11.5,5,11.8,5.3,12l-1.5,1.5c-0.4-0.3-0.8-0.7-1.2-1.1S2,11.5,1.8,11.1c-0.2-0.5-0.4-1-0.6-1.5
	S1,8.4,1,7.9C1,7.2,1.1,6.6,1.3,6S1.7,4.9,2,4.4C2.3,3.9,2.6,3.4,3,3c0.4-0.4,0.9-0.8,1.4-1.1s1.1-0.5,1.7-0.7S7.3,1,8,1
	c0.6,0,1.2,0.1,1.8,0.3S11,1.7,11.5,2c0.5,0.3,1,0.7,1.4,1.1S13.7,4,14,4.5c0.3,0.5,0.5,1.1,0.7,1.7C14.9,6.8,15,7.5,15,8.1z"/>
</svg>
