<?xml version="1.0" encoding="utf-8"?>
<!-- Generator: Adobe Illustrator 17.0.0, SVG Export Plug-In . SVG Version: 6.00 Build 0)  -->
<!DOCTYPE svg PUBLIC "-//W3C//DTD SVG 1.1//EN" "http://www.w3.org/Graphics/SVG/1.1/DTD/svg11.dtd">
<svg version="1.1" id="Layer_1" xmlns="http://www.w3.org/2000/svg" xmlns:xlink="http://www.w3.org/1999/xlink" x="0px" y="0px"
	 width="16px" height="16px" viewBox="0 0 16 16" enable-background="new 0 0 16 16" xml:space="preserve">
<path fill="#F5F5F5" d="M10.969,10.375c-0.325-0.09-0.739-0.325-1.204-0.734c-0.398-0.342-0.809-0.784-1.23-1.266
	c-0.1,0.118-0.2,0.236-0.301,0.356C7.959,9.059,7.678,9.389,7.391,9.714c1,1.068,2.039,2.115,3.577,2.288v1.248l3.97-2.015
	l-3.97-2.015V10.375z M4.352,6.346C4.749,6.688,5.16,7.13,5.581,7.611C5.683,7.49,5.786,7.371,5.889,7.247
	c0.274-0.325,0.552-0.652,0.836-0.975C5.659,5.134,4.554,4.005,2.84,3.951H1.001v1.617H2.84C3.185,5.556,3.724,5.792,4.352,6.346z
	 M10.969,5.61v1.171l3.97-2.016l-3.97-2.016v1.223c-1,0.101-1.799,0.623-2.496,1.222C7.319,6.203,6.31,7.582,5.315,8.677
	c-0.981,1.126-1.965,1.8-2.476,1.742H1v1.617h1.839c1.148-0.013,2.038-0.585,2.806-1.244C6.797,9.783,7.807,8.405,8.802,7.31
	C9.613,6.378,10.422,5.766,10.969,5.61z"/>
</svg>
