<?xml version="1.0" encoding="utf-8"?>
<!-- Generator: Adobe Illustrator 17.0.0, SVG Export Plug-In . SVG Version: 6.00 Build 0)  -->
<!DOCTYPE svg PUBLIC "-//W3C//DTD SVG 1.1//EN" "http://www.w3.org/Graphics/SVG/1.1/DTD/svg11.dtd">
<svg version="1.1" id="Layer_1" xmlns="http://www.w3.org/2000/svg" xmlns:xlink="http://www.w3.org/1999/xlink" x="0px" y="0px"
	 width="100px" height="100px" viewBox="0 0 100 100" enable-background="new 0 0 100 100" xml:space="preserve">
<path fill="#607D8B" d="M15.281,66.527c-3.912-14.854-4.723-30.193,4.221-43.656C25.92,13.211,37.953,8.5,50.002,8.5
	c12.957,0,23.095,4.306,29.938,13.516c9.817,13.212,8.66,29.667,4.718,44.511c-1.049,3.947,5.48,5.623,6.532,1.679
	c4.446-16.748,5.107-35.397-5.4-50.375C78.008,6.744,64.612,0.327,50.527,0.011c-14.232-0.32-27.35,6.45-35.649,16.987
	C3.384,31.587,4.354,51.523,8.751,68.206C9.79,72.154,16.323,70.479,15.281,66.527L15.281,66.527z"/>
<polygon fill="#607D8B" points="73.271,93.17 79.555,94.307 84.588,70.202 78.301,69.063 "/>
<path fill="#607D8B" d="M60.373,94.832c-0.48,2.3,1.84,4.65,5.178,5.258l0,0c3.338,0.604,6.435-0.77,6.916-3.07l6.876-32.961
	c0.484-2.301-1.838-4.656-5.174-5.262l0,0c-3.338-0.604-6.437,0.771-6.912,3.071L60.373,94.832z"/>
<path fill="#607D8B" d="M82.131,89.794c-0.188,0.901,0.304,1.743,1.097,1.886l1.481,0.27c0.792,0.145,1.588-0.467,1.775-1.363
	l4.413-21.138c0.187-0.899-0.305-1.739-1.098-1.886l-1.479-0.271c-0.795-0.144-1.592,0.472-1.779,1.366L82.131,89.794z"/>
<polygon fill="#607D8B" points="26.713,93.168 20.429,94.307 15.397,70.202 21.683,69.063 "/>
<path fill="#607D8B" d="M39.608,94.83c0.481,2.302-1.837,4.65-5.174,5.26l0,0c-3.338,0.604-6.438-0.77-6.917-3.07l-6.879-32.961
	c-0.479-2.301,1.837-4.656,5.175-5.262l0,0c3.34-0.604,6.437,0.771,6.917,3.071L39.608,94.83z"/>
<path fill="#607D8B" d="M17.853,89.794c0.185,0.899-0.306,1.743-1.099,1.883l-1.479,0.271c-0.793,0.145-1.59-0.467-1.777-1.361
	L9.085,69.445c-0.188-0.896,0.306-1.738,1.1-1.885l1.478-0.269c0.796-0.146,1.591,0.467,1.777,1.364L17.853,89.794z"/>
</svg>
