<?xml version="1.0" encoding="utf-8"?>
<!-- Generator: Adobe Illustrator 17.0.0, SVG Export Plug-In . SVG Version: 6.00 Build 0)  -->
<!DOCTYPE svg PUBLIC "-//W3C//DTD SVG 1.1//EN" "http://www.w3.org/Graphics/SVG/1.1/DTD/svg11.dtd">
<svg version="1.1"
	 id="Layer_1" xmlns:dc="http://purl.org/dc/elements/1.1/" xmlns:cc="http://creativecommons.org/ns#" xmlns:rdf="http://www.w3.org/1999/02/22-rdf-syntax-ns#" xmlns:svg="http://www.w3.org/2000/svg" xmlns:sodipodi="http://sodipodi.sourceforge.net/DTD/sodipodi-0.dtd" xmlns:inkscape="http://www.inkscape.org/namespaces/inkscape" inkscape:version="0.48.4 r9939" sodipodi:docname="disabled_reverse.svg" inkscape:export-xdpi="36.713268" inkscape:export-filename="D:\Files\Programming\Baka MPlayer (Git)\Baka MPlayer\Resources\MainForm\reverseButton\_disabled_reverse.png" inkscape:export-ydpi="36.713268"
	 xmlns="http://www.w3.org/2000/svg" xmlns:xlink="http://www.w3.org/1999/xlink" x="0px" y="0px" width="25.127px" height="20px"
	 viewBox="18.349 14.605 25.127 20" enable-background="new 18.349 14.605 25.127 20" xml:space="preserve">
<sodipodi:namedview  id="namedview3009" bordercolor="#666666" pagecolor="#ffffff" borderopacity="1" objecttolerance="10" gridtolerance="10" guidetolerance="10" showgrid="false" showguides="true" inkscape:zoom="4.2992092" inkscape:cx="63.852023" inkscape:cy="29.433509" inkscape:pageopacity="0" inkscape:pageshadow="2" inkscape:window-width="1920" inkscape:window-height="1017" inkscape:guide-bbox="true" inkscape:snap-global="true" inkscape:snap-page="true" inkscape:snap-bbox="true" inkscape:snap-center="true" inkscape:window-x="-8" inkscape:window-y="-8" inkscape:window-maximized="1" inkscape:current-layer="Layer_1" inkscape:snap-bbox-edge-midpoints="true" fit-margin-right="0" inkscape:snap-object-midpoints="false" inkscape:bbox-nodes="true" inkscape:snap-bbox-midpoints="true" inkscape:bbox-paths="true" fit-margin-bottom="0" fit-margin-top="0" fit-margin-left="0">
	</sodipodi:namedview>
<g id="rect3754" transform="translate(-2.3702906e-6,0)" inkscape:connector-curvature="0">
	<path id="path5" inkscape:connector-curvature="0" fill="#808080" d="M41.85,16.231v16.749h-1.267V16.231H41.85 M42.685,14.605
		h-2.937c-0.436,0-0.79,0.474-0.79,1.059v17.883c0,0.585,0.354,1.059,0.79,1.059h2.937c0.436,0,0.79-0.474,0.79-1.059V15.664
		C43.475,15.079,43.121,14.605,42.685,14.605L42.685,14.605z"/>
</g>
<g id="g7" transform="translate(-2.3702906e-6,0)">
	<path id="path9" inkscape:connector-curvature="0" fill="#808080" d="M33.231,18.829v5.776v5.776l-5.003-2.888l-5.002-2.888
		l5.003-2.888L33.231,18.829 M35.669,14.605l-8.66,5l-8.66,5l8.66,5l8.66,5v-10V14.605L35.669,14.605z"/>
</g>
</svg>
