<?xml version="1.0" encoding="utf-8"?>
<!-- Generator: Adobe Illustrator 17.0.0, SVG Export Plug-In . SVG Version: 6.00 Build 0)  -->
<!DOCTYPE svg PUBLIC "-//W3C//DTD SVG 1.1//EN" "http://www.w3.org/Graphics/SVG/1.1/DTD/svg11.dtd">
<svg version="1.1"
	 id="Layer_1" xmlns:dc="http://purl.org/dc/elements/1.1/" xmlns:cc="http://creativecommons.org/ns#" xmlns:rdf="http://www.w3.org/1999/02/22-rdf-syntax-ns#" xmlns:svg="http://www.w3.org/2000/svg" xmlns:sodipodi="http://sodipodi.sourceforge.net/DTD/sodipodi-0.dtd" xmlns:inkscape="http://www.inkscape.org/namespaces/inkscape" inkscape:version="0.48.4 r9939" sodipodi:docname="disabled_pause.svg" inkscape:export-xdpi="71.801628" inkscape:export-filename="D:\Files\Programming\Baka MPlayer (Git)\Baka MPlayer\Resources\MainForm\pauseButton\disabled_pause.png" inkscape:export-ydpi="71.801628"
	 xmlns="http://www.w3.org/2000/svg" xmlns:xlink="http://www.w3.org/1999/xlink" x="0px" y="0px" width="26.945px" height="39px"
	 viewBox="3.528 5.104 26.945 39" enable-background="new 3.528 5.104 26.945 39" xml:space="preserve">
<sodipodi:namedview  id="namedview3009" bordercolor="#666666" pagecolor="#ffffff" borderopacity="1" objecttolerance="10" gridtolerance="10" guidetolerance="10" showgrid="false" showguides="true" inkscape:zoom="0.76" inkscape:cx="89.369242" inkscape:cy="-52.189642" inkscape:pageopacity="0" inkscape:pageshadow="2" inkscape:window-width="1920" inkscape:window-height="1017" inkscape:guide-bbox="true" inkscape:snap-global="true" inkscape:snap-page="true" inkscape:snap-bbox="true" inkscape:snap-center="true" inkscape:window-x="-8" inkscape:window-y="-8" inkscape:window-maximized="1" inkscape:current-layer="Layer_1" inkscape:snap-bbox-edge-midpoints="true" fit-margin-right="0" inkscape:snap-object-midpoints="false" inkscape:bbox-nodes="true" inkscape:snap-bbox-midpoints="true" inkscape:bbox-paths="true" fit-margin-bottom="0" fit-margin-top="0" fit-margin-left="0">
	</sodipodi:namedview>
<g id="g4" transform="matrix(0.93223194,0,0,1,-2.7966965,0)">
	<path id="path6" inkscape:connector-curvature="0" fill="#808080" d="M12.652,7.482c1.925,0,3.49,1.274,3.49,2.84v28.566
		c0,1.565-1.565,2.84-3.49,2.84s-3.49-1.274-3.49-2.84V10.321C9.16,8.756,10.727,7.482,12.652,7.482 M12.652,5.104
		c-3.241,0-5.868,2.336-5.868,5.217v28.566c0,2.882,2.628,5.217,5.868,5.217s5.868-2.336,5.868-5.217V10.321
		C18.519,7.441,15.892,5.104,12.652,5.104L12.652,5.104z"/>
</g>
<g id="g8" transform="matrix(0.93223194,0,0,1,-2.9322327,0)">
	<path id="path10" inkscape:connector-curvature="0" fill="#808080" d="M29.965,7.482c1.925,0,3.49,1.274,3.49,2.84v28.566
		c0,1.565-1.565,2.84-3.49,2.84s-3.49-1.274-3.49-2.84V10.321c0-0.705,0.327-1.384,0.92-1.911
		C28.069,7.812,28.981,7.482,29.965,7.482 M29.965,5.104c-3.241,0-5.869,2.336-5.868,5.217v28.566c0,2.882,2.628,5.217,5.868,5.217
		s5.868-2.336,5.868-5.217V10.321C35.834,7.441,33.206,5.104,29.965,5.104L29.965,5.104z"/>
</g>
</svg>
