<?xml version="1.0" encoding="utf-8"?>
<!-- Generator: Adobe Illustrator 17.0.0, SVG Export Plug-In . SVG Version: 6.00 Build 0)  -->
<!DOCTYPE svg PUBLIC "-//W3C//DTD SVG 1.1//EN" "http://www.w3.org/Graphics/SVG/1.1/DTD/svg11.dtd">
<svg version="1.1"
	 id="Layer_1" xmlns:dc="http://purl.org/dc/elements/1.1/" xmlns:cc="http://creativecommons.org/ns#" xmlns:rdf="http://www.w3.org/1999/02/22-rdf-syntax-ns#" xmlns:svg="http://www.w3.org/2000/svg" xmlns:sodipodi="http://sodipodi.sourceforge.net/DTD/sodipodi-0.dtd" xmlns:inkscape="http://www.inkscape.org/namespaces/inkscape" inkscape:export-ydpi="18" inkscape:export-xdpi="18" sodipodi:docname="enabled_mic.svg" inkscape:export-filename="D:\Files\Programming\Baka MPlayer (Git)\Baka MPlayer\Resources\MainForm\mic image\enabled_mic.png" inkscape:version="0.48.4 r9939"
	 xmlns="http://www.w3.org/2000/svg" xmlns:xlink="http://www.w3.org/1999/xlink" x="0px" y="0px" width="12px" height="20px"
	 viewBox="24 40 12 20" enable-background="new 24 40 12 20" xml:space="preserve">
<sodipodi:namedview  inkscape:cy="45.614753" inkscape:cx="-23.424737" inkscape:zoom="5.84" showgrid="false" guidetolerance="10" gridtolerance="10" objecttolerance="10" borderopacity="1" pagecolor="#ffffff" bordercolor="#666666" id="namedview7" inkscape:current-layer="Layer_1" inkscape:window-maximized="0" inkscape:window-y="92" inkscape:window-x="52" inkscape:window-height="818" inkscape:window-width="1280" inkscape:pageshadow="2" inkscape:pageopacity="0">
	</sodipodi:namedview>
<path id="path3" inkscape:export-ydpi="22.5" inkscape:export-xdpi="22.5" inkscape:export-filename="C:\Users\Joshua Park\Desktop\Files\enabled_mic.png" fill="#1E90FF" d="
	M34.4,47.6v2.8c0,1.951-1.648,3.6-3.6,3.6l0,0h-1.6c-1.951,0-3.6-1.649-3.6-3.6v-2.8H24v2.8c0,2.819,2.381,5.2,5.2,5.2v2.8h-3.4V60
	h8.4v-1.6h-3.4v-2.8l0,0c2.819,0,5.2-2.381,5.2-5.2v-2.8H34.4z"/>
<path id="path5" sodipodi:nodetypes="csssssscc" inkscape:connector-curvature="0" inkscape:export-ydpi="22.5" inkscape:export-xdpi="22.5" inkscape:export-filename="C:\Users\Joshua Park\Desktop\Files\enabled_mic.png" fill="#1E90FF" d="
	M33.161,42c-0.203-1.103-1.218-2-2.361-2h-1.6c-1.279,0-2.4,1.121-2.4,2.4v8c0,1.279,1.121,2.4,2.4,2.4h1.6
	c1.143,0,2.158-0.897,2.361-2c0-8.321,0.039-2.135,0.039-8"/>
</svg>
