<?xml version="1.0" encoding="utf-8"?>
<!-- Generator: Adobe Illustrator 17.0.0, SVG Export Plug-In . SVG Version: 6.00 Build 0)  -->
<!DOCTYPE svg PUBLIC "-//W3C//DTD SVG 1.1//EN" "http://www.w3.org/Graphics/SVG/1.1/DTD/svg11.dtd">
<svg version="1.1" id="Layer_1" xmlns="http://www.w3.org/2000/svg" xmlns:xlink="http://www.w3.org/1999/xlink" x="0px" y="0px"
	 width="256px" height="256px" viewBox="0 0 256 256" enable-background="new 0 0 256 256" xml:space="preserve">
<g>
	<polygon fill="#141414" points="1.228,187.022 66.124,2.415 128.33,92.454 190.534,2.421 254.774,187.02 127.675,254.619 	"/>
	<path fill="#FFFFFF" d="M66.416,4.598l60.268,87.234l1.645,2.382l1.646-2.382L190.237,4.61l63.311,181.929l-125.871,66.947
		L2.456,186.545L66.416,4.598 M190.831,0.232L128.33,90.695L65.831,0.232L0,187.5l127.674,68.252L256,187.5L190.831,0.232
		L190.831,0.232z"/>
</g>
<g>
	<path fill="#607D8B" d="M55.505,173.176c20.854,0,38.871,13.269,47.376,32.504c0.059-0.953,0.099-1.911,0.099-2.88
		c0-23.431-17.376-42.426-38.81-42.426c-13.493,0-25.374,7.531-32.328,18.954C38.956,175.402,46.99,173.176,55.505,173.176z"/>
	<path fill="#607D8B" d="M199.943,173.176c-20.854,0-38.871,13.269-47.376,32.504c-0.059-0.953-0.099-1.911-0.099-2.88
		c0-23.431,17.376-42.426,38.81-42.426c13.493,0,25.374,7.531,32.328,18.954C216.492,175.402,208.457,173.176,199.943,173.176z"/>
</g>
</svg>
