<?xml version="1.0" encoding="utf-8"?>
<!-- Generator: Adobe Illustrator 17.0.0, SVG Export Plug-In . SVG Version: 6.00 Build 0)  -->
<!DOCTYPE svg PUBLIC "-//W3C//DTD SVG 1.1//EN" "http://www.w3.org/Graphics/SVG/1.1/DTD/svg11.dtd">
<svg version="1.1" id="Layer_1" xmlns="http://www.w3.org/2000/svg" xmlns:xlink="http://www.w3.org/1999/xlink" x="0px" y="0px"
	 width="16px" height="16px" viewBox="0 0 16 16" enable-background="new 0 0 16 16" xml:space="preserve">
<path fill="#F5F5F5" d="M8.312,2.75v1.5H2.219c-0.302,0-0.628,0.111-0.864,0.328C1.12,4.796,1,5.096,1,5.376v5.25
	c0,0.279,0.12,0.58,0.356,0.797s0.561,0.328,0.864,0.328h1.219v-1.5H2.626v-4.5h5.687v1.5l2.437-2.25l-2.437-2.25V2.75z
	 M11.562,4.25v1.5h0.812v4.5H6.688v-1.5L4.25,11l2.437,2.25v-1.5h6.093c0.302,0,0.628-0.111,0.864-0.328S14,10.904,14,10.624v-5.25
	c0-0.279-0.12-0.58-0.356-0.797c-0.236-0.218-0.561-0.329-0.864-0.329h-1.219V4.25z"/>
</svg>
