<?xml version="1.0" encoding="utf-8"?>
<!-- Generator: Adobe Illustrator 17.0.0, SVG Export Plug-In . SVG Version: 6.00 Build 0)  -->
<!DOCTYPE svg PUBLIC "-//W3C//DTD SVG 1.1//EN" "http://www.w3.org/Graphics/SVG/1.1/DTD/svg11.dtd">
<svg version="1.1" id="Layer_1" xmlns="http://www.w3.org/2000/svg" xmlns:xlink="http://www.w3.org/1999/xlink" x="0px" y="0px"
	 width="256px" height="256px" viewBox="0 0 256 256" enable-background="new 0 0 256 256" xml:space="preserve">
<polygon fill="#141414" points="190.831,0.232 128.33,90.695 65.831,0.232 0,202 127.674,255.752 256,202 "/>
<g>
	<path fill="#1E90FF" d="M55.505,173.176c20.854,0,38.871,13.269,47.376,32.504c0.059-0.953,0.099-1.911,0.099-2.88
		c0-23.431-17.376-42.426-38.81-42.426c-13.493,0-25.374,7.531-32.328,18.954C38.956,175.402,46.99,173.176,55.505,173.176z"/>
	<path fill="#1E90FF" d="M199.943,173.176c-20.854,0-38.871,13.269-47.376,32.504c-0.059-0.953-0.099-1.911-0.099-2.88
		c0-23.431,17.376-42.426,38.81-42.426c13.493,0,25.374,7.531,32.328,18.954C216.492,175.402,208.457,173.176,199.943,173.176z"/>
</g>
</svg>
